<svg id="Layer_1" data-name="Layer 1" xmlns="http://www.w3.org/2000/svg" viewBox="0 0 2264.22437 1559.1591">
  <title>FullPoster</title>
  <path d="M678.566,302.89062c-45.15741,36.66116-98.36981,83.44571-89.14029,148.23392,4.31207,30.26941,24.895,51.48,51.39468,64.83337,28.31665,14.26892,59.9425,22.53528,91.28973,26.54468,65.516,8.3797,132.55792-2.92822,194.35864-25.08386,28.569-10.242,58.4-22,83.38306-39.52155,23.11914-16.21429,40.15289-39.85458,36.86054-69.3103-1.76215-15.76547-8.35632-30.60953-16.32117-44.16888-7.6275-12.985-16.40814-26.3649-27.05908-37.10376-9.618-9.69745-21.884-15.794-35.77576-13.26453-15.32983,2.79129-27.946,13.76831-39.18494,23.84644a446.94873,446.94873,0,0,0-65.19592,72.91208c-19.307,27.02585-37.22083,56.62961-47.26581,88.46927-9.20715,29.184-9.98627,60.415,3.6731,88.33844,11.92957,24.38733,32.52136,43.42175,54.81763,58.32251,49.43921,33.04059,109.72552,44.631,158.82593,78.21777a161.68311,161.68311,0,0,1,33.85626,30.43616c11.00238,13.38934,18.81409,29.84283,12.809,47.20331-5.27417,15.24744-17.8476,26.89392-29.377,37.57709q-19.66983,18.22623-39.85431,35.88611a1880.99967,1880.99967,0,0,1-169.5957,132.06567q-21.3045,14.714-43.00769,28.8374a1.50757,1.50757,0,0,0,1.15582,2.74158c40.42969-6.63916,77.23578-28.68237,113.332-46.8894q58.051-29.28094,115.776-59.2027,115.88214-60.06619,230.41382-122.69092,64.33887-35.17923,128.23535-71.15863a1.51031,1.51031,0,0,0,0-2.59039c-35.56885-15.45581-75.11548-9.75116-111.6825-1.20416-39.54138,9.24219-78.59021,20.81445-117.03979,33.84521-77.05249,26.1134-151.78693,58.79828-224.22748,95.75781q-27.44073,14.00043-54.47351,28.798c-9.9718,5.48267-24.26575,17.00586-13.80963,29.115,4.20087,4.865,10.8443,7.28284,16.89868,8.82233,9.68781,2.46338,19.70294,4.00183,29.53931,5.75574q30.87,5.50424,61.99237,9.431c84.84662,10.8728,170.41254,14.10229,255.81232,17.48425,85.96631,3.40442,172.11572,6.91907,257.44788,18.50818q15.70221,2.13263,31.34912,4.64331l-.89648-2.20349c-14.599,26.498-38.35706,45.62964-60.96594,64.994-22.46936,19.24487-42.89355,40.20532-59.975,64.43848a321.55279,321.55279,0,0,0-40.8092,79.43237c-2.43152,6.98657-4.76489,14.08105-6.55469,21.26318-1.35767,5.44849-1.99561,11.43274,1.673,16.14331,3.28577,4.21912,8.8374,5.97522,13.87256,6.96521,7.58838,1.49182,15.40027,2.25464,23.07959,3.11511a583.73266,583.73266,0,0,0,120.8916.84143c1.90466-.18335,1.92371-3.18518,0-3a584.98779,584.98779,0,0,1-100.47131,1.07751q-12.661-.96442-25.27112-2.48352c-7.47082-.90027-15.53589-1.27686-22.689-3.81689-3.493-1.24036-6.729-3.19116-8.26379-6.69775-1.92017-4.387-.50867-9.29565.7074-13.69543,1.90674-6.89844,4.078-13.72681,6.46582-20.47339,19.416-54.85815,53.69348-101.6366,97.61682-139.40222,23.37427-20.09729,48.15649-39.73047,63.28381-67.18738a1.51307,1.51307,0,0,0-.89648-2.20349c-80.8501-12.94226-162.66138-17.9021-244.38379-21.41357-82.27881-3.53528-164.6814-5.67407-246.71533-13.34845-41.22382-3.85651-82.33643-9.1272-123.05463-16.6781-10.24554-1.9-48.13287-5.359-39.07922-24.38361,3.67383-7.71985,13.30267-11.694,20.37-15.53217q12.92972-7.02191,25.95227-13.87122c70.41327-37.0238,142.95972-70.158,217.78082-97.27319,36.83984-13.35077,74.21631-25.23492,112.06628-35.38232,36.9154-9.89685,76.50427-21.26276,115.03552-15.52081a110.937,110.937,0,0,1,27.90979,7.93V736.3713q-113.31317,63.792-228.00586,125.08984-113.82614,60.82361-228.96777,119.14148c-21.47388,10.87622-42.90619,21.8689-64.55872,32.38635-20.904,10.15381-42.44763,19.23462-65.50824,23.02161l1.15582,2.74158A1895.537,1895.537,0,0,0,964.06095,918.572q39.746-32.4657,77.68329-67.065c19.09595-17.41693,47.59082-39.40186,42.892-68.80334-2.31164-14.4646-11.79926-26.80011-21.57587-37.20258a174.85967,174.85967,0,0,0-31.50848-26.0719c-23.90686-15.7215-50.55737-26.64453-76.94043-37.42609-49.65314-20.291-106.796-44.3172-132.1311-95.2735-14.6004-29.36566-12.36646-62.32935-1.69049-92.58728,10.897-30.88434,28.74292-59.698,48.01367-86.02023a441.9337,441.9337,0,0,1,65.56873-71.54257c12.19275-10.66177,28.04462-22.83115,45.34576-19.70782,15.40833,2.78162,25.86139,16.54153,34.47131,28.45856,18.5011,25.60739,37.97961,58.55713,26.57568,91.08774-9.47327,27.02322-36.47986,43.35629-60.87012,55.27817-57.94421,28.32294-121.885,47.16486-186.51093,50.1441-31.90515,1.47083-64.04-1.04578-95.11249-8.58356A285.22363,285.22363,0,0,1,652.68717,518.182c-14.20441-6.1192-28.14111-13.79108-39.18106-24.787-22.00558-21.91772-26.04565-54.18689-18.30554-83.256,8.05359-30.24643,28.43051-54.89264,50.97263-75.793C657.25,324.076,668.96537,314.52837,680.68741,305.0118c1.49939-1.21725-.63452-3.3284-2.12134-2.12131Z" transform="translate(-588.3721 -302.53002)"/>
  <path d="M2541.68994,1029.67273a644.07809,644.07809,0,0,1-48.2522,104.55219c-8.27905,14.37652-20.13074,28.811-22.07532,45.78491-1.07507,9.38422.27844,18.9,1.18152,28.24255q1.40991,14.58545,2.881,29.16486c7.60962,74.52454,17.25061,151.17981,46.36316,220.84314,13.2085,31.60657,31.90771,59.3468,59.42969,80.1449,13.84814,10.465,28.91162,19.18262,44.124,27.48572q25.00891,13.64978,50.30029,26.79456c33.36084,17.333,67.37378,33.37512,102.97485,45.58411,16.79272,5.75879,34.415,11.516,47.61182,23.947,11.06128,10.41943,18.15088,24.42139,21.3606,39.1792,7.03149,32.33227-5.48267,64.46631-27.32031,88.3208-23.92163,26.1311-56.62769,41.40064-89.9729,51.7312a492.12414,492.12414,0,0,1-53.113,13.44275c-18.12988,3.46326-36.94507,5.42053-55.31152,2.65466-35.87744-5.40283-60.5669-30.886-79.6001-60.00342-10.04663-15.36975-20.27-32.18335-22.20679-50.83411-1.71875-16.55127,3.70117-34.38318,18.42481-43.52075,14.89771-9.24585,34.55957-9.42835,51.49048-8.19946,18.72021,1.35864,37.06494,5.96484,54.759,12.09058,18.30859,6.3385,35.98682,14.33191,53.48633,22.60876,13.46045,6.36658,31.32153,12.70264,38.31812,26.99719,7.94727,16.23706-3.97485,34.20239-18.16919,42.05151-16.08252,8.89331-36.77563,10.58423-54.79614,11.78979-17.75366,1.18774-38.72021-2.25977-46.67871-20.51709-7.68994-17.6416,9.74487-33.144,23.27051-41.64844,13.97925-8.78967,32.6438-13.72522,47.69092-4.49194,12.30737,7.55225,18.3479,22.85925,17.09961,36.90149-1.38892,15.62463-12.6394,28.25391-26.6792,34.35815-15.293,6.64893-32.54126,5.21033-47.04492-2.75281a68.1248,68.1248,0,0,1-18.09692-14.56323c-5.68677-6.41467-17.2168-20.16235-6.95679-26.89661,13.05-8.56567,31.77881-10.49731,46.92822-9.09717a86.07089,86.07089,0,0,1,44.04907,17.07642c1.53857,1.166,3.03491-1.43787,1.51416-2.59045a88.75174,88.75174,0,0,0-45.56323-17.486c-15.74512-1.43823-34.01855.85767-47.81738,9.11169-15.46362,9.24988,1.26392,28.06763,9.85571,36.28919,11.20166,10.71912,26.14111,18.01636,41.81738,18.22693,29.69849.3988,57.05127-24.834,49.989-55.60266-3.00488-13.09216-11.93042-24.53528-24.8418-28.9259-15.49316-5.26868-32.38037.377-45.42969,9.139-11.93213,8.012-26.78565,21.09924-24.57935,37.05762,2.20459,15.947,17.36914,26.26709,32.22827,28.74255,9.38062,1.56274,18.91138.8811,28.30688-.18115,9.30127-1.05164,18.70288-2.11145,27.83179-4.23181,16.168-3.75537,31.88647-11.97937,38.76587-27.92017,6.13867-14.22461,1.251-28.35059-10.63062-37.68091-6.27393-4.92676-13.4978-8.41492-20.6582-11.839-9.332-4.46265-18.68433-8.88794-28.13794-13.08838-35.9043-15.95276-75.29468-29.80786-115.20972-25.69116-15.93286,1.64319-32.019,7.29614-40.79492,21.5647-8.66528,14.08862-8.53638,31.834-3.74658,47.20349,5.49732,17.63977,16.18457,33.87231,26.94116,48.73023,10.1477,14.017,21.94409,27.14551,36.54028,36.64,32.70044,21.271,72.94775,16.71362,109.04175,8.30249,37.42676-8.7218,76.09961-19.92749,107.488-42.95276,26.46021-19.41016,48.32837-47.93005,51.98145-81.36694,3.47339-31.79187-9.73486-64.47327-38.03174-80.7384-16.62647-9.557-35.71729-14.2428-53.5249-21.05542-20.38184-7.79749-40.25732-16.85889-59.81909-26.51636-19.14966-9.454-38.001-19.49561-56.82349-29.58069-16.95605-9.08508-34.03223-18.06592-50.03955-28.77478-16.80469-11.24243-32.06909-24.54419-44.10645-40.87451-11.814-16.02734-20.69629-34.0354-27.93286-52.52905-15.2522-38.97864-24.76367-80.14795-31.62439-121.35742-7.11487-42.736-11.40942-85.92541-15.41345-129.04639-.98547-10.61316-1.44983-21.18976,2.60156-31.28125,3.87537-9.65289,10.17078-18.3299,15.42883-27.25281q15.97687-27.1127,29.24719-55.70135,12.55371-27.04578,22.56836-55.16583c.65137-1.82123-2.24634-2.60523-2.89282-.79755Z" transform="translate(-588.3721 -302.53002)"/>
  <path d="M2314.56836,1245.74963q-32.89252,56.61731-60.31482,116.17139-13.36176,29.07184-25.35413,58.74792c-8.09094,20.01428-14.66846,40.85986-23.93445,60.36633-8.56506,18.031-21.46875,35.49414-40.9126,42.55566-19.4668,7.06983-40.48682-1.1532-57.09265-11.72949-15.6864-9.99072-28.95349-25.4447-29.89661-44.757-.4198-8.597,1.46362-17.41748,6.2428-24.66016,5.35645-8.11743,14.01172-12.65283,23.26941-14.88135,10.42981-2.51074,21.52588-2.86755,32.214-3.20605,10.28735-.32581,20.699-.08105,30.82458,1.91614,10.04163,1.98059,19.89758,5.76379,27.7887,12.43079,7.91541,6.68762,15.64111,19.69177,8.09326,29.40137-1.1709,1.50635.93738,3.64441,2.12134,2.12134,11.47962-14.76746-3.93945-32.50659-16.83459-39.67236-17.021-9.45862-37.63611-9.92627-56.593-9.01221-17.975.8667-39.72046,1.54627-51.79126,17.053-10.31909,13.25647-10.66321,32.546-3.64538,47.36206,8.52258,17.993,26.11035,29.95557,43.98291,37.41284,9.88574,4.12476,20.52661,6.97363,31.3092,5.69019,9.496-1.13025,18.422-5.20862,26.06763-10.85925,17.35388-12.82581,26.83374-32.58228,34.46741-52.19336,9.0116-23.15088,17.70532-46.376,27.476-69.22754a1369.64451,1369.64451,0,0,1,75.10278-149.51611,1.50112,1.50112,0,0,0-2.59045-1.51416Z" transform="translate(-588.3721 -302.53002)"/>
</svg>
