<svg id="Layer_1" data-name="Layer 1" xmlns="http://www.w3.org/2000/svg" xmlns:xlink="http://www.w3.org/1999/xlink" viewBox="0 0 2264.22437 1559.1591">
  <defs>
    <style>
      .cls-1, .cls-10, .cls-12, .cls-15, .cls-17, .cls-19, .cls-3, .cls-4, .cls-5, .cls-7, .cls-8, .cls-9 {
        fill: none;
      }

      .cls-2 {
        clip-path: url(#clip-path);
      }

      .cls-3 {
        stroke: red;
      }

      .cls-10, .cls-12, .cls-15, .cls-17, .cls-19, .cls-3, .cls-4, .cls-5, .cls-7, .cls-8, .cls-9 {
        stroke-miterlimit: 10;
      }

      .cls-10, .cls-12, .cls-3, .cls-4, .cls-5, .cls-7, .cls-8 {
        stroke-width: 3px;
      }

      .cls-4 {
        stroke: #000;
      }

      .cls-5 {
        stroke: #a680b8;
      }

      .cls-6 {
        fill: #a680b8;
      }

      .cls-7 {
        stroke: #836591;
      }

      .cls-8 {
        stroke: #c45a56;
      }

      .cls-9 {
        stroke: #ea8a67;
      }

      .cls-15, .cls-17, .cls-9 {
        stroke-width: 2px;
      }

      .cls-10 {
        stroke: #ea6b66;
      }

      .cls-11 {
        fill: #ea6b66;
      }

      .cls-12 {
        stroke: #ffb570;
      }

      .cls-13 {
        fill: #ffb570;
      }

      .cls-14 {
        fill: #fff;
      }

      .cls-15 {
        stroke: #7ea6e0;
      }

      .cls-16 {
        fill: #7ea6e0;
      }

      .cls-17, .cls-19 {
        stroke: #886996;
      }

      .cls-18 {
        fill: #886996;
      }

      .cls-19 {
        stroke-width: 7px;
      }
    </style>
    <clipPath id="clip-path" transform="translate(-588.3721 -302.53002)">
      <rect class="cls-1" x="1587.96576" y="335.12905" width="883" height="375"/>
    </clipPath>
  </defs>
  <title>FullPoster</title>
  <path d="M678.566,302.89062c-45.15741,36.66116-98.36981,83.44571-89.14029,148.23392,4.31207,30.26941,24.895,51.48,51.39468,64.83337,28.31665,14.26892,59.9425,22.53528,91.28973,26.54468,65.516,8.3797,132.55792-2.92822,194.35864-25.08386,28.569-10.242,58.4-22,83.38306-39.52155,23.11914-16.21429,40.15289-39.85458,36.86054-69.3103-1.76215-15.76547-8.35632-30.60953-16.32117-44.16888-7.6275-12.985-16.40814-26.3649-27.05908-37.10376-9.618-9.69745-21.884-15.794-35.77576-13.26453-15.32983,2.79129-27.946,13.76831-39.18494,23.84644a446.94873,446.94873,0,0,0-65.19592,72.91208c-19.307,27.02585-37.22083,56.62961-47.26581,88.46927-9.20715,29.184-9.98627,60.415,3.6731,88.33844,11.92957,24.38733,32.52136,43.42175,54.81763,58.32251,49.43921,33.04059,109.72552,44.631,158.82593,78.21777a161.68311,161.68311,0,0,1,33.85626,30.43616c11.00238,13.38934,18.81409,29.84283,12.809,47.20331-5.27417,15.24744-17.8476,26.89392-29.377,37.57709q-19.66983,18.22623-39.85431,35.88611a1880.99967,1880.99967,0,0,1-169.5957,132.06567q-21.3045,14.714-43.00769,28.8374a1.50757,1.50757,0,0,0,1.15582,2.74158c40.42969-6.63916,77.23578-28.68237,113.332-46.8894q58.051-29.28094,115.776-59.2027,115.88214-60.06619,230.41382-122.69092,64.33887-35.17923,128.23535-71.15863a1.51031,1.51031,0,0,0,0-2.59039c-35.56885-15.45581-75.11548-9.75116-111.6825-1.20416-39.54138,9.24219-78.59021,20.81445-117.03979,33.84521-77.05249,26.1134-151.78693,58.79828-224.22748,95.75781q-27.44073,14.00043-54.47351,28.798c-9.9718,5.48267-24.26575,17.00586-13.80963,29.115,4.20087,4.865,10.8443,7.28284,16.89868,8.82233,9.68781,2.46338,19.70294,4.00183,29.53931,5.75574q30.87,5.50424,61.99237,9.431c84.84662,10.8728,170.41254,14.10229,255.81232,17.48425,85.96631,3.40442,172.11572,6.91907,257.44788,18.50818q15.70221,2.13263,31.34912,4.64331l-.89648-2.20349c-14.599,26.498-38.35706,45.62964-60.96594,64.994-22.46936,19.24487-42.89355,40.20532-59.975,64.43848a321.55279,321.55279,0,0,0-40.8092,79.43237c-2.43152,6.98657-4.76489,14.08105-6.55469,21.26318-1.35767,5.44849-1.99561,11.43274,1.673,16.14331,3.28577,4.21912,8.8374,5.97522,13.87256,6.96521,7.58838,1.49182,15.40027,2.25464,23.07959,3.11511a583.73266,583.73266,0,0,0,120.8916.84143c1.90466-.18335,1.92371-3.18518,0-3a584.98779,584.98779,0,0,1-100.47131,1.07751q-12.661-.96442-25.27112-2.48352c-7.47082-.90027-15.53589-1.27686-22.689-3.81689-3.493-1.24036-6.729-3.19116-8.26379-6.69775-1.92017-4.387-.50867-9.29565.7074-13.69543,1.90674-6.89844,4.078-13.72681,6.46582-20.47339,19.416-54.85815,53.69348-101.6366,97.61682-139.40222,23.37427-20.09729,48.15649-39.73047,63.28381-67.18738a1.51307,1.51307,0,0,0-.89648-2.20349c-80.8501-12.94226-162.66138-17.9021-244.38379-21.41357-82.27881-3.53528-164.6814-5.67407-246.71533-13.34845-41.22382-3.85651-82.33643-9.1272-123.05463-16.6781-10.24554-1.9-48.13287-5.359-39.07922-24.38361,3.67383-7.71985,13.30267-11.694,20.37-15.53217q12.92972-7.02191,25.95227-13.87122c70.41327-37.0238,142.95972-70.158,217.78082-97.27319,36.83984-13.35077,74.21631-25.23492,112.06628-35.38232,36.9154-9.89685,76.50427-21.26276,115.03552-15.52081a110.937,110.937,0,0,1,27.90979,7.93V736.3713q-113.31317,63.792-228.00586,125.08984-113.82614,60.82361-228.96777,119.14148c-21.47388,10.87622-42.90619,21.8689-64.55872,32.38635-20.904,10.15381-42.44763,19.23462-65.50824,23.02161l1.15582,2.74158A1895.537,1895.537,0,0,0,964.06095,918.572q39.746-32.4657,77.68329-67.065c19.09595-17.41693,47.59082-39.40186,42.892-68.80334-2.31164-14.4646-11.79926-26.80011-21.57587-37.20258a174.85967,174.85967,0,0,0-31.50848-26.0719c-23.90686-15.7215-50.55737-26.64453-76.94043-37.42609-49.65314-20.291-106.796-44.3172-132.1311-95.2735-14.6004-29.36566-12.36646-62.32935-1.69049-92.58728,10.897-30.88434,28.74292-59.698,48.01367-86.02023a441.9337,441.9337,0,0,1,65.56873-71.54257c12.19275-10.66177,28.04462-22.83115,45.34576-19.70782,15.40833,2.78162,25.86139,16.54153,34.47131,28.45856,18.5011,25.60739,37.97961,58.55713,26.57568,91.08774-9.47327,27.02322-36.47986,43.35629-60.87012,55.27817-57.94421,28.32294-121.885,47.16486-186.51093,50.1441-31.90515,1.47083-64.04-1.04578-95.11249-8.58356A285.22363,285.22363,0,0,1,652.68717,518.182c-14.20441-6.1192-28.14111-13.79108-39.18106-24.787-22.00558-21.91772-26.04565-54.18689-18.30554-83.256,8.05359-30.24643,28.43051-54.89264,50.97263-75.793C657.25,324.076,668.96537,314.52837,680.68741,305.0118c1.49939-1.21725-.63452-3.3284-2.12134-2.12131Z" transform="translate(-588.3721 -302.53002)"/>
  <path d="M2541.68994,1029.67273a644.07809,644.07809,0,0,1-48.2522,104.55219c-8.27905,14.37652-20.13074,28.811-22.07532,45.78491-1.07507,9.38422.27844,18.9,1.18152,28.24255q1.40991,14.58545,2.881,29.16486c7.60962,74.52454,17.25061,151.17981,46.36316,220.84314,13.2085,31.60657,31.90771,59.3468,59.42969,80.1449,13.84814,10.465,28.91162,19.18262,44.124,27.48572q25.00891,13.64978,50.30029,26.79456c33.36084,17.333,67.37378,33.37512,102.97485,45.58411,16.79272,5.75879,34.415,11.516,47.61182,23.947,11.06128,10.41943,18.15088,24.42139,21.3606,39.1792,7.03149,32.33227-5.48267,64.46631-27.32031,88.3208-23.92163,26.1311-56.62769,41.40064-89.9729,51.7312a492.12414,492.12414,0,0,1-53.113,13.44275c-18.12988,3.46326-36.94507,5.42053-55.31152,2.65466-35.87744-5.40283-60.5669-30.886-79.6001-60.00342-10.04663-15.36975-20.27-32.18335-22.20679-50.83411-1.71875-16.55127,3.70117-34.38318,18.42481-43.52075,14.89771-9.24585,34.55957-9.42835,51.49048-8.19946,18.72021,1.35864,37.06494,5.96484,54.759,12.09058,18.30859,6.3385,35.98682,14.33191,53.48633,22.60876,13.46045,6.36658,31.32153,12.70264,38.31812,26.99719,7.94727,16.23706-3.97485,34.20239-18.16919,42.05151-16.08252,8.89331-36.77563,10.58423-54.79614,11.78979-17.75366,1.18774-38.72021-2.25977-46.67871-20.51709-7.68994-17.6416,9.74487-33.144,23.27051-41.64844,13.97925-8.78967,32.6438-13.72522,47.69092-4.49194,12.30737,7.55225,18.3479,22.85925,17.09961,36.90149-1.38892,15.62463-12.6394,28.25391-26.6792,34.35815-15.293,6.64893-32.54126,5.21033-47.04492-2.75281a68.1248,68.1248,0,0,1-18.09692-14.56323c-5.68677-6.41467-17.2168-20.16235-6.95679-26.89661,13.05-8.56567,31.77881-10.49731,46.92822-9.09717a86.07089,86.07089,0,0,1,44.04907,17.07642c1.53857,1.166,3.03491-1.43787,1.51416-2.59045a88.75174,88.75174,0,0,0-45.56323-17.486c-15.74512-1.43823-34.01855.85767-47.81738,9.11169-15.46362,9.24988,1.26392,28.06763,9.85571,36.28919,11.20166,10.71912,26.14111,18.01636,41.81738,18.22693,29.69849.3988,57.05127-24.834,49.989-55.60266-3.00488-13.09216-11.93042-24.53528-24.8418-28.9259-15.49316-5.26868-32.38037.377-45.42969,9.139-11.93213,8.012-26.78565,21.09924-24.57935,37.05762,2.20459,15.947,17.36914,26.26709,32.22827,28.74255,9.38062,1.56274,18.91138.8811,28.30688-.18115,9.30127-1.05164,18.70288-2.11145,27.83179-4.23181,16.168-3.75537,31.88647-11.97937,38.76587-27.92017,6.13867-14.22461,1.251-28.35059-10.63062-37.68091-6.27393-4.92676-13.4978-8.41492-20.6582-11.839-9.332-4.46265-18.68433-8.88794-28.13794-13.08838-35.9043-15.95276-75.29468-29.80786-115.20972-25.69116-15.93286,1.64319-32.019,7.29614-40.79492,21.5647-8.66528,14.08862-8.53638,31.834-3.74658,47.20349,5.49732,17.63977,16.18457,33.87231,26.94116,48.73023,10.1477,14.017,21.94409,27.14551,36.54028,36.64,32.70044,21.271,72.94775,16.71362,109.04175,8.30249,37.42676-8.7218,76.09961-19.92749,107.488-42.95276,26.46021-19.41016,48.32837-47.93005,51.98145-81.36694,3.47339-31.79187-9.73486-64.47327-38.03174-80.7384-16.62647-9.557-35.71729-14.2428-53.5249-21.05542-20.38184-7.79749-40.25732-16.85889-59.81909-26.51636-19.14966-9.454-38.001-19.49561-56.82349-29.58069-16.95605-9.08508-34.03223-18.06592-50.03955-28.77478-16.80469-11.24243-32.06909-24.54419-44.10645-40.87451-11.814-16.02734-20.69629-34.0354-27.93286-52.52905-15.2522-38.97864-24.76367-80.14795-31.62439-121.35742-7.11487-42.736-11.40942-85.92541-15.41345-129.04639-.98547-10.61316-1.44983-21.18976,2.60156-31.28125,3.87537-9.65289,10.17078-18.3299,15.42883-27.25281q15.97687-27.1127,29.24719-55.70135,12.55371-27.04578,22.56836-55.16583c.65137-1.82123-2.24634-2.60523-2.89282-.79755Z" transform="translate(-588.3721 -302.53002)"/>
  <path d="M2314.56836,1245.74963q-32.89252,56.61731-60.31482,116.17139-13.36176,29.07184-25.35413,58.74792c-8.09094,20.01428-14.66846,40.85986-23.93445,60.36633-8.56506,18.031-21.46875,35.49414-40.9126,42.55566-19.4668,7.06983-40.48682-1.1532-57.09265-11.72949-15.6864-9.99072-28.95349-25.4447-29.89661-44.757-.4198-8.597,1.46362-17.41748,6.2428-24.66016,5.35645-8.11743,14.01172-12.65283,23.26941-14.88135,10.42981-2.51074,21.52588-2.86755,32.214-3.20605,10.28735-.32581,20.699-.08105,30.82458,1.91614,10.04163,1.98059,19.89758,5.76379,27.7887,12.43079,7.91541,6.68762,15.64111,19.69177,8.09326,29.40137-1.1709,1.50635.93738,3.64441,2.12134,2.12134,11.47962-14.76746-3.93945-32.50659-16.83459-39.67236-17.021-9.45862-37.63611-9.92627-56.593-9.01221-17.975.8667-39.72046,1.54627-51.79126,17.053-10.31909,13.25647-10.66321,32.546-3.64538,47.36206,8.52258,17.993,26.11035,29.95557,43.98291,37.41284,9.88574,4.12476,20.52661,6.97363,31.3092,5.69019,9.496-1.13025,18.422-5.20862,26.06763-10.85925,17.35388-12.82581,26.83374-32.58228,34.46741-52.19336,9.0116-23.15088,17.70532-46.376,27.476-69.22754a1369.64451,1369.64451,0,0,1,75.10278-149.51611,1.50112,1.50112,0,0,0-2.59045-1.51416Z" transform="translate(-588.3721 -302.53002)"/>
  <g class="cls-2">
    <rect class="cls-3" x="1101.09366" y="66.09903" width="680" height="250" rx="37.5" ry="37.5"/>
    <path d="M2097.96137,338.94155v1.9165a20.41737,20.41737,0,0,0-2.24,2.84424,28.84133,28.84133,0,0,0-2.47192,4.37012,29.86575,29.86575,0,0,0-1.61133,4.1626q-.354,1.2085-.91553,3.894h-2.4292a29.91457,29.91457,0,0,1,3.66211-9.96094,31.53154,31.53154,0,0,1,3.51563-5.01709h-9.668v-2.20947Zm-20.34863,9.09424h6.12793v2.2583h-6.12793Zm-13.17139-4.98047h2.84424l3.00293,4.60205,3.03955-4.60205,2.67334.061-4.40674,6.311,4.60205,6.70166h-2.80762l-3.24707-4.90723-3.14941,4.90723h-2.7832l4.60205-6.70166Zm-4.30176-4.8584h2.23389v2.49023h-2.23389Zm0,4.91943h2.23389v13.0127h-2.23389Zm-6.498-3.71094h2.22168v3.6499h2.0874v1.79443h-2.0874v8.53271a.92333.92333,0,0,0,.46387.91553,1.97177,1.97177,0,0,0,.85449.13428q.15871,0,.3418-.0061t.42725-.03052v1.7334a4.90665,4.90665,0,0,1-.78735.15869,7.48333,7.48333,0,0,1-.885.04883,2.38522,2.38522,0,0,1-2.0874-.78735,3.499,3.499,0,0,1-.54932-2.04468v-8.65479h-1.77v-1.79443h1.77Zm-8.69092,3.6499h2.0874v2.2583a4.98945,4.98945,0,0,1,1.25733-1.60522,3.26,3.26,0,0,1,2.30713-.946q.061,0,.20752.01221t.50049.04883v2.31934a3.28469,3.28469,0,0,0-.36011-.04883q-.16479-.01222-.36011-.01221a3.13559,3.13559,0,0,0-2.55127,1.06812,3.72824,3.72824,0,0,0-.89111,2.45972v7.51953h-2.19727Zm-11.22754-4.8584h2.74658l6.50635,17.93213h-2.66113L2038.496,350.758h-7.09228l-1.94092,5.37109h-2.49023Zm3.9917,10.5835-2.72217-7.92236-2.89307,7.92236Zm-30.17969-5.7251h2.84424l3.00293,4.60205,3.03955-4.60205,2.67334.061-4.40674,6.311,4.60205,6.70166h-2.80762l-3.24707-4.90723-3.14941,4.90723h-2.7832l4.60205-6.70166Zm-12.64551,0h2.0874v1.85547a5.85455,5.85455,0,0,1,1.96533-1.64795,5.24116,5.24116,0,0,1,2.30713-.50049q2.7832,0,3.75977,1.94092a6.89219,6.89219,0,0,1,.53711,3.03955v8.38623h-2.23389v-8.23975a4.462,4.462,0,0,0-.354-1.92871,2.14614,2.14614,0,0,0-2.124-1.2207,4.32448,4.32448,0,0,0-1.28174.15869,3.30093,3.30093,0,0,0-1.58691,1.07422,3.23394,3.23394,0,0,0-.71411,1.33667,8.99746,8.99746,0,0,0-.16479,1.97144v6.84814h-2.19727Zm-5.54687-4.8584h2.23389v2.49023h-2.23389Zm0,4.91943h2.23389v13.0127h-2.23389Zm-5.48584-4.91943h2.19727v17.93213h-2.19727Zm-5.60791,0h2.23389v2.49023H1978.249Zm0,4.91943h2.23389v13.0127H1978.249Zm-14.84082,13.0127h-2.92969l6.4209-9.19189-6.01807-8.74023h3.03955l4.57764,6.86035,4.541-6.86035h2.89307l-6.01807,8.74023,6.311,9.19189h-3.01514l-4.834-7.373Z" transform="translate(-588.3721 -302.53002)"/>
    <rect class="cls-4" x="1121.09366" y="86.09903" width="80" height="60" rx="9" ry="9"/>
    <path d="M1761.62787,406.52163h1.17773v8.60742h-1.17773Zm-10.27734,0h1.66992l2.47266,7.27734,2.45508-7.27734h1.65234v8.60742h-1.10742V410.049q0-.26367.01172-.873t.01172-1.30664l-2.45508,7.25977h-1.1543l-2.47266-7.25977v.26367q0,.31641.01465.96387t.01465.95215v5.08008h-1.11328Zm-8.57422,0h3.48633a3.286,3.286,0,0,1,2.75391,1.25977,4.64446,4.64446,0,0,1,.873,2.91211,5.80209,5.80209,0,0,1-.51562,2.47852,3.18125,3.18125,0,0,1-3.123,1.957h-3.47461Zm3.252,7.61133a3.22264,3.22264,0,0,0,.97266-.123,2.13936,2.13936,0,0,0,1.11328-.87891,3.60183,3.60183,0,0,0,.498-1.33594,5.09568,5.09568,0,0,0,.08789-.90234,4.202,4.202,0,0,0-.63574-2.48437,2.34857,2.34857,0,0,0-2.04785-.88477h-2.06836V414.133Zm-11.93164-7.61133h1.17773v3.55664h4.47656v-3.55664h1.17773v8.60742h-1.17773v-4.02539h-4.47656v4.02539h-1.17773Z" transform="translate(-588.3721 -302.53002)"/>
    <path d="M1767.94037,422.85366h1.002v1.084a2.395,2.395,0,0,1,.60352-.77051,1.56483,1.56483,0,0,1,1.10742-.4541q.0293,0,.09961.00586t.24023.02344v1.11328a1.57536,1.57536,0,0,0-.17285-.02344q-.0791-.00586-.17285-.00586a1.50507,1.50507,0,0,0-1.22461.5127,1.78959,1.78959,0,0,0-.42773,1.18066v3.60938h-1.05469Zm-2.40625,2.63672a2.73249,2.73249,0,0,0-.29883-1.0957,1.5316,1.5316,0,0,0-1.44727-.76172,1.60426,1.60426,0,0,0-1.21875.52441,1.981,1.981,0,0,0-.52148,1.333Zm-.38672-2.46387a2.38792,2.38792,0,0,1,.95508.81152,2.79976,2.79976,0,0,1,.42188,1.10742,7.24548,7.24548,0,0,1,.09375,1.38281h-4.59961a2.684,2.684,0,0,0,.45117,1.53223,1.51072,1.51072,0,0,0,1.30664.57715,1.68916,1.68916,0,0,0,1.31836-.54492,1.837,1.837,0,0,0,.39844-.73242h1.03711a2.18426,2.18426,0,0,1-.27246.77051,2.74042,2.74042,0,0,1-.51856.69434,2.45779,2.45779,0,0,1-1.18945.63281,3.61335,3.61335,0,0,1-.86133.09375,2.64277,2.64277,0,0,1-1.98633-.85254,3.31718,3.31718,0,0,1-.81445-2.3877,3.60678,3.60678,0,0,1,.82031-2.45508,2.70617,2.70617,0,0,1,2.14453-.94336A2.86248,2.86248,0,0,1,1765.14741,423.02651Zm-7.11719.02051a2.83525,2.83525,0,0,1,.63867.61523v-3.16992h1.01367v8.63672h-.94922v-.873a2.28188,2.28188,0,0,1-.873.83789,2.499,2.499,0,0,1-1.1543.25781,2.33749,2.33749,0,0,1-1.81641-.88184,3.44768,3.44768,0,0,1-.76758-2.34668,4.05089,4.05089,0,0,1,.7002-2.376,2.29238,2.29238,0,0,1,2.001-1.00488A2.23264,2.23264,0,0,1,1758.03022,423.047Zm-2.36719,4.70508a1.49879,1.49879,0,0,0,1.37109.67969,1.4441,1.4441,0,0,0,1.2041-.62988,2.97472,2.97472,0,0,0,.47168-1.80762,2.673,2.673,0,0,0-.48633-1.76074,1.517,1.517,0,0,0-1.20117-.57129,1.58566,1.58566,0,0,0-1.292.60938,2.791,2.791,0,0,0-.49512,1.793A3.11064,3.11064,0,0,0,1755.663,427.7521Zm-3.18555-4.27148a3.1576,3.1576,0,0,1,.83789,2.37891,4.08148,4.08148,0,0,1-.73828,2.50781,2.67065,2.67065,0,0,1-2.291.99023,2.58641,2.58641,0,0,1-2.05664-.876,3.46,3.46,0,0,1-.76172-2.35254,3.74329,3.74329,0,0,1,.80273-2.51953,2.694,2.694,0,0,1,2.15625-.9375A2.8416,2.8416,0,0,1,1752.47748,423.48061Zm-.65332,4.1748a3.95541,3.95541,0,0,0,.38965-1.7666,3.14542,3.14542,0,0,0-.28125-1.42969,1.58214,1.58214,0,0,0-1.53516-.86719,1.51385,1.51385,0,0,0-1.40625.73828,3.42209,3.42209,0,0,0-.43945,1.78125,2.9767,2.9767,0,0,0,.43945,1.66992,1.54779,1.54779,0,0,0,1.39453.668A1.45453,1.45453,0,0,0,1751.82416,427.65542Zm-5.7832-4.46777a2.47018,2.47018,0,0,1,.7998,1.77539h-1.02539a1.893,1.893,0,0,0-.42773-.96387,1.35114,1.35114,0,0,0-1.07227-.38379,1.48159,1.48159,0,0,0-1.44141.98438,3.91031,3.91031,0,0,0-.28125,1.57617,2.966,2.966,0,0,0,.39844,1.58789,1.54464,1.54464,0,0,0,2.29395.24316,2.207,2.207,0,0,0,.53027-1.09863h1.02539a2.47976,2.47976,0,0,1-2.67773,2.40234,2.40127,2.40127,0,0,1-1.96289-.89941,3.44251,3.44251,0,0,1-.73242-2.24707,3.78564,3.78564,0,0,1,.80273-2.57227,2.59389,2.59389,0,0,1,2.04492-.91992A2.73605,2.73605,0,0,1,1746.041,423.18765Zm-6.52246,2.30273a2.73249,2.73249,0,0,0-.29883-1.0957,1.5316,1.5316,0,0,0-1.44727-.76172,1.60426,1.60426,0,0,0-1.21875.52441,1.981,1.981,0,0,0-.52148,1.333Zm-.38672-2.46387a2.38792,2.38792,0,0,1,.95508.81152,2.79976,2.79976,0,0,1,.42188,1.10742,7.24548,7.24548,0,0,1,.09375,1.38281h-4.59961a2.684,2.684,0,0,0,.45117,1.53223,1.51072,1.51072,0,0,0,1.30664.57715,1.68916,1.68916,0,0,0,1.31836-.54492,1.837,1.837,0,0,0,.39844-.73242h1.03711a2.18426,2.18426,0,0,1-.27246.77051,2.74042,2.74042,0,0,1-.51856.69434,2.45779,2.45779,0,0,1-1.18945.63281,3.61335,3.61335,0,0,1-.86133.09375,2.64277,2.64277,0,0,1-1.98633-.85254,3.31718,3.31718,0,0,1-.81445-2.3877,3.60678,3.60678,0,0,1,.82031-2.45508,2.70617,2.70617,0,0,1,2.14453-.94336A2.86248,2.86248,0,0,1,1739.13178,423.02651Zm-12.37109-2.50488h3.48633a3.286,3.286,0,0,1,2.75391,1.25977,4.64446,4.64446,0,0,1,.873,2.91211,5.80209,5.80209,0,0,1-.51562,2.47852,3.18125,3.18125,0,0,1-3.123,1.957h-3.47461Zm3.252,7.61133a3.22264,3.22264,0,0,0,.97266-.123,2.13936,2.13936,0,0,0,1.11328-.87891,3.60183,3.60183,0,0,0,.498-1.33594,5.09568,5.09568,0,0,0,.08789-.90234,4.202,4.202,0,0,0-.63574-2.48437,2.34857,2.34857,0,0,0-2.04785-.88477h-2.06836V428.133Z" transform="translate(-588.3721 -302.53002)"/>
    <rect class="cls-4" x="1001.09366" y="86.09903" width="80" height="60" rx="9" ry="9"/>
    <path d="M1642.44037,406.52163h1.17773v8.60742h-1.17773Zm-10.27734,0h1.66992l2.47266,7.27734,2.45508-7.27734h1.65234v8.60742h-1.10742V410.049q0-.26367.01172-.873t.01172-1.30664l-2.45508,7.25977h-1.1543l-2.47266-7.25977v.26367q0,.31641.01465.96387t.01465.95215v5.08008H1632.163Zm-8.57422,0h3.48633a3.286,3.286,0,0,1,2.75391,1.25977,4.64446,4.64446,0,0,1,.873,2.91211,5.80209,5.80209,0,0,1-.51562,2.47852,3.18125,3.18125,0,0,1-3.123,1.957h-3.47461Zm3.252,7.61133a3.22264,3.22264,0,0,0,.97266-.123,2.13936,2.13936,0,0,0,1.11328-.87891,3.60183,3.60183,0,0,0,.498-1.33594,5.09568,5.09568,0,0,0,.08789-.90234,4.202,4.202,0,0,0-.63574-2.48437,2.34857,2.34857,0,0,0-2.04785-.88477h-2.06836V414.133Zm-11.93164-7.61133h1.17773v3.55664h4.47656v-3.55664h1.17773v8.60742h-1.17773v-4.02539h-4.47656v4.02539h-1.17773Z" transform="translate(-588.3721 -302.53002)"/>
    <path d="M1639.95014,421.10171h1.06641v1.752h1.002v.86133h-1.002v4.0957a.44318.44318,0,0,0,.22266.43945.9464.9464,0,0,0,.41016.06445q.07617,0,.16406-.00293t.20508-.01465v.832a2.35443,2.35443,0,0,1-.37793.07617,3.59308,3.59308,0,0,1-.4248.02344,1.14491,1.14491,0,0,1-1.002-.37793,1.67951,1.67951,0,0,1-.26367-.98145V423.715h-.84961v-.86133h.84961Zm-5.82812,1.752v4.166a1.75657,1.75657,0,0,0,.15234.78516,1.063,1.063,0,0,0,1.04883.5625,1.48244,1.48244,0,0,0,1.5-.98437,3.90552,3.90552,0,0,0,.2168-1.44727v-3.082h1.05469v6.27539h-.99609l.01172-.92578a2.1275,2.1275,0,0,1-.50977.60352,2.24313,2.24313,0,0,1-1.46484.49219,1.88958,1.88958,0,0,1-1.82812-.89648,2.66992,2.66992,0,0,1-.26367-1.2832v-4.26562Zm-7.80859.0293h1.02539v.832a2.55994,2.55994,0,0,1,.69141-.66211,2.22546,2.22546,0,0,1,1.25391-.35156,2.35779,2.35779,0,0,1,1.81055.81738,3.3489,3.3489,0,0,1,.74414,2.335,3.58543,3.58543,0,0,1-1.07227,2.92969,2.42261,2.42261,0,0,1-1.582.55664,2.14745,2.14745,0,0,1-1.18945-.31055,2.74048,2.74048,0,0,1-.627-.60352V431.631h-1.05469Zm3.958,4.91895a2.9417,2.9417,0,0,0,.48926-1.84863,3.45064,3.45064,0,0,0-.2168-1.28906,1.58858,1.58858,0,0,0-3,.05859,4.34252,4.34252,0,0,0-.2168,1.48828,3.15491,3.15491,0,0,0,.2168,1.23633,1.593,1.593,0,0,0,2.72754.35449Zm-10.54785-4.94824h1.002v.89063a2.8103,2.8103,0,0,1,.94336-.791,2.51566,2.51566,0,0,1,1.10742-.24023,1.826,1.826,0,0,1,1.80469.93164,3.30818,3.30818,0,0,1,.25781,1.459v4.02539h-1.07227V425.174a2.14165,2.14165,0,0,0-.16992-.92578,1.03015,1.03015,0,0,0-1.01953-.58594,2.076,2.076,0,0,0-.61523.07617,1.58441,1.58441,0,0,0-.76172.51563,1.55236,1.55236,0,0,0-.34277.6416,4.31877,4.31877,0,0,0-.0791.94629v3.28711h-1.05469Zm-2.92383-2.332h1.17773v8.60742h-1.17773Z" transform="translate(-588.3721 -302.53002)"/>
    <rect class="cls-4" x="1681.09366" y="86.09903" width="80" height="60" rx="9" ry="9"/>
    <path d="M2321.62787,406.52163h1.17774v8.60742h-1.17774Zm-10.27734,0h1.66992l2.47266,7.27734,2.45508-7.27734h1.65234v8.60742h-1.10742V410.049q0-.26367.01172-.873t.01172-1.30664l-2.45508,7.25977h-1.1543l-2.47266-7.25977v.26367q0,.31641.01465.96387t.01465.95215v5.08008h-1.11328Zm-8.57422,0h3.48633a3.286,3.286,0,0,1,2.75391,1.25977,4.64446,4.64446,0,0,1,.873,2.91211,5.80209,5.80209,0,0,1-.51562,2.47852,3.18125,3.18125,0,0,1-3.123,1.957h-3.47461Zm3.252,7.61133a3.22264,3.22264,0,0,0,.97266-.123,2.13936,2.13936,0,0,0,1.11328-.87891,3.60183,3.60183,0,0,0,.498-1.33594,5.09568,5.09568,0,0,0,.08789-.90234,4.202,4.202,0,0,0-.63574-2.48437,2.34857,2.34857,0,0,0-2.04785-.88477h-2.06836V414.133Zm-11.93164-7.61133h1.17774v3.55664h4.47656v-3.55664h1.17773v8.60742h-1.17773v-4.02539h-4.47656v4.02539h-1.17774Z" transform="translate(-588.3721 -302.53002)"/>
    <path d="M2327.61225,422.85366h1.002v1.084a2.395,2.395,0,0,1,.60352-.77051,1.56483,1.56483,0,0,1,1.10742-.4541q.0293,0,.09961.00586t.24024.02344v1.11328a1.57536,1.57536,0,0,0-.17285-.02344q-.0791-.00586-.17285-.00586a1.50507,1.50507,0,0,0-1.22461.5127,1.78959,1.78959,0,0,0-.42773,1.18066v3.60938h-1.05469Zm-2.40625,2.63672a2.73249,2.73249,0,0,0-.29883-1.0957,1.5316,1.5316,0,0,0-1.44727-.76172,1.60426,1.60426,0,0,0-1.21875.52441,1.981,1.981,0,0,0-.52148,1.333Zm-.38672-2.46387a2.38792,2.38792,0,0,1,.95508.81152,2.79976,2.79976,0,0,1,.42188,1.10742,7.24548,7.24548,0,0,1,.09375,1.38281h-4.59961a2.684,2.684,0,0,0,.45117,1.53223,1.51072,1.51072,0,0,0,1.30664.57715,1.68916,1.68916,0,0,0,1.31836-.54492,1.837,1.837,0,0,0,.39844-.73242h1.03711a2.18426,2.18426,0,0,1-.27246.77051,2.74042,2.74042,0,0,1-.51855.69434,2.45779,2.45779,0,0,1-1.18945.63281,3.61335,3.61335,0,0,1-.86133.09375,2.64277,2.64277,0,0,1-1.98633-.85254,3.31718,3.31718,0,0,1-.81445-2.3877,3.60678,3.60678,0,0,1,.82031-2.45508,2.70617,2.70617,0,0,1,2.14453-.94336A2.86248,2.86248,0,0,1,2324.81928,423.02651Zm-7.11719.02051a2.83525,2.83525,0,0,1,.63867.61523v-3.16992h1.01367v8.63672h-.94922v-.873a2.28188,2.28188,0,0,1-.873.83789,2.499,2.499,0,0,1-1.1543.25781,2.33749,2.33749,0,0,1-1.81641-.88184,3.44768,3.44768,0,0,1-.76758-2.34668,4.05089,4.05089,0,0,1,.70019-2.376,2.29238,2.29238,0,0,1,2.001-1.00488A2.23264,2.23264,0,0,1,2317.70209,423.047Zm-2.36719,4.70508a1.49879,1.49879,0,0,0,1.37109.67969,1.4441,1.4441,0,0,0,1.2041-.62988,2.97472,2.97472,0,0,0,.47168-1.80762,2.673,2.673,0,0,0-.48633-1.76074,1.517,1.517,0,0,0-1.20117-.57129,1.58566,1.58566,0,0,0-1.292.60938,2.791,2.791,0,0,0-.49512,1.793A3.11064,3.11064,0,0,0,2315.33491,427.7521Zm-3.18555-4.27148a3.1576,3.1576,0,0,1,.83789,2.37891,4.08148,4.08148,0,0,1-.73828,2.50781,2.67065,2.67065,0,0,1-2.291.99023,2.58641,2.58641,0,0,1-2.05664-.876,3.46,3.46,0,0,1-.76172-2.35254,3.74329,3.74329,0,0,1,.80273-2.51953,2.694,2.694,0,0,1,2.15625-.9375A2.8416,2.8416,0,0,1,2312.14936,423.48061Zm-.65332,4.1748a3.95541,3.95541,0,0,0,.38965-1.7666,3.14542,3.14542,0,0,0-.28125-1.42969,1.58214,1.58214,0,0,0-1.53516-.86719,1.51385,1.51385,0,0,0-1.40625.73828,3.42209,3.42209,0,0,0-.43945,1.78125,2.9767,2.9767,0,0,0,.43945,1.66992,1.54779,1.54779,0,0,0,1.39453.668A1.45453,1.45453,0,0,0,2311.496,427.65542Zm-5.7832-4.46777a2.47018,2.47018,0,0,1,.79981,1.77539h-1.02539a1.893,1.893,0,0,0-.42773-.96387,1.35114,1.35114,0,0,0-1.07227-.38379,1.48159,1.48159,0,0,0-1.44141.98438,3.91031,3.91031,0,0,0-.28125,1.57617,2.966,2.966,0,0,0,.39844,1.58789,1.54464,1.54464,0,0,0,2.29395.24316,2.207,2.207,0,0,0,.53027-1.09863h1.02539a2.47976,2.47976,0,0,1-2.67773,2.40234,2.40127,2.40127,0,0,1-1.96289-.89941,3.44251,3.44251,0,0,1-.73242-2.24707,3.78564,3.78564,0,0,1,.80273-2.57227,2.59389,2.59389,0,0,1,2.04492-.91992A2.73605,2.73605,0,0,1,2305.71283,423.18765Zm-10.81738-.334h1.002v.89063a2.8103,2.8103,0,0,1,.94336-.791,2.51566,2.51566,0,0,1,1.10742-.24023,1.826,1.826,0,0,1,1.80469.93164,3.30818,3.30818,0,0,1,.25781,1.459v4.02539h-1.07227V425.174a2.14165,2.14165,0,0,0-.16992-.92578,1.03015,1.03015,0,0,0-1.01953-.58594,2.076,2.076,0,0,0-.61523.07617,1.58441,1.58441,0,0,0-.76172.51563,1.55236,1.55236,0,0,0-.34277.6416,4.31877,4.31877,0,0,0-.0791.94629v3.28711h-1.05469Zm-7.748-2.332h6.27539v1.05469h-5.13867v2.61328h4.752v.99609h-4.752v2.918h5.22656v1.02539h-6.36328Z" transform="translate(-588.3721 -302.53002)"/>
    <rect class="cls-4" x="1801.09366" y="86.09903" width="80" height="60" rx="9" ry="9"/>
    <path d="M2440.456,406.52163h1.17774v8.60742H2440.456Zm-10.27734,0h1.66992l2.47266,7.27734,2.45508-7.27734h1.65234v8.60742h-1.10742V410.049q0-.26367.01172-.873t.01172-1.30664l-2.45508,7.25977h-1.1543l-2.47266-7.25977v.26367q0,.31641.01465.96387t.01465.95215v5.08008h-1.11328Zm-8.57422,0h3.48633a3.286,3.286,0,0,1,2.75391,1.25977,4.64446,4.64446,0,0,1,.873,2.91211,5.80209,5.80209,0,0,1-.51562,2.47852,3.18125,3.18125,0,0,1-3.123,1.957h-3.47461Zm3.252,7.61133a3.22264,3.22264,0,0,0,.97266-.123,2.13936,2.13936,0,0,0,1.11328-.87891,3.60183,3.60183,0,0,0,.498-1.33594,5.09568,5.09568,0,0,0,.08789-.90234,4.202,4.202,0,0,0-.63574-2.48437,2.34857,2.34857,0,0,0-2.04785-.88477h-2.06836V414.133Zm-11.93164-7.61133h1.17774v3.55664h4.47656v-3.55664h1.17773v8.60742H2418.579v-4.02539h-4.47656v4.02539h-1.17774Z" transform="translate(-588.3721 -302.53002)"/>
    <path d="M2444.622,421.10171h1.06641v1.752h1.002v.86133h-1.002v4.0957a.44318.44318,0,0,0,.22266.43945.9464.9464,0,0,0,.41016.06445q.07617,0,.16406-.00293t.20508-.01465v.832a2.35443,2.35443,0,0,1-.37793.07617,3.59308,3.59308,0,0,1-.4248.02344,1.14491,1.14491,0,0,1-1.002-.37793,1.67951,1.67951,0,0,1-.26367-.98145V423.715h-.84961v-.86133h.84961Zm-5.82812,1.752v4.166a1.75657,1.75657,0,0,0,.15234.78516,1.063,1.063,0,0,0,1.04883.5625,1.48244,1.48244,0,0,0,1.5-.98437,3.90552,3.90552,0,0,0,.2168-1.44727v-3.082h1.05469v6.27539h-.99609l.01172-.92578a2.1275,2.1275,0,0,1-.50977.60352,2.24313,2.24313,0,0,1-1.46484.49219,1.88958,1.88958,0,0,1-1.82812-.89648,2.66992,2.66992,0,0,1-.26367-1.2832v-4.26562Zm-7.80859.0293h1.02539v.832a2.55994,2.55994,0,0,1,.69141-.66211,2.22546,2.22546,0,0,1,1.25391-.35156,2.35779,2.35779,0,0,1,1.81055.81738,3.3489,3.3489,0,0,1,.74414,2.335,3.58543,3.58543,0,0,1-1.07227,2.92969,2.42261,2.42261,0,0,1-1.582.55664,2.14745,2.14745,0,0,1-1.18945-.31055,2.74048,2.74048,0,0,1-.627-.60352V431.631h-1.05469Zm3.958,4.91895a2.9417,2.9417,0,0,0,.48926-1.84863,3.45064,3.45064,0,0,0-.2168-1.28906,1.58858,1.58858,0,0,0-3,.05859,4.34252,4.34252,0,0,0-.2168,1.48828,3.15491,3.15491,0,0,0,.2168,1.23633,1.593,1.593,0,0,0,2.72754.35449Zm-6.99316-6.7002h1.06641v1.752h1.002v.86133h-1.002v4.0957a.44318.44318,0,0,0,.22266.43945.9464.9464,0,0,0,.41016.06445q.07617,0,.16406-.00293t.20508-.01465v.832a2.35443,2.35443,0,0,1-.37793.07617,3.59308,3.59308,0,0,1-.4248.02344,1.14491,1.14491,0,0,1-1.002-.37793,1.67951,1.67951,0,0,1-.26367-.98145V423.715h-.84961v-.86133h.84961Zm-5.82812,1.752v4.166a1.75657,1.75657,0,0,0,.15234.78516,1.063,1.063,0,0,0,1.04883.5625,1.48244,1.48244,0,0,0,1.5-.98437,3.90552,3.90552,0,0,0,.2168-1.44727v-3.082h1.05469v6.27539h-.99609l.01172-.92578a2.1275,2.1275,0,0,1-.50977.60352,2.24313,2.24313,0,0,1-1.46484.49219,1.88958,1.88958,0,0,1-1.82812-.89648,2.66992,2.66992,0,0,1-.26367-1.2832v-4.26562Zm-4.18066,4.37988a4.70118,4.70118,0,0,0,.68848-2.54,3.62312,3.62312,0,0,0-.79395-2.44336,2.7099,2.7099,0,0,0-2.1709-.92578,2.827,2.827,0,0,0-2.17969.917,3.86489,3.86489,0,0,0-.84375,2.7041,3.95071,3.95071,0,0,0,.72363,2.41113,2.72152,2.72152,0,0,0,2.34668.98145A2.42751,2.42751,0,0,0,2417.94135,427.23354Zm1.02832-5.48145a4.74707,4.74707,0,0,1,.85547,2.92383,5.1165,5.1165,0,0,1-.97852,3.20508,4.348,4.348,0,0,1-6.39844.1875,4.95594,4.95594,0,0,1-1.01367-3.19922,5.08837,5.08837,0,0,1,.86719-2.98828,3.757,3.757,0,0,1,3.293-1.59375A3.94057,3.94057,0,0,1,2418.96967,421.7521Z" transform="translate(-588.3721 -302.53002)"/>
    <line class="cls-5" x1="1081.09366" y1="116.09903" x2="1110.99366" y2="116.09903"/>
    <polygon class="cls-6" points="1117.744 116.099 1108.744 120.599 1110.994 116.099 1108.744 111.599 1117.744 116.099"/>
    <polygon class="cls-5" points="1117.744 116.099 1108.744 120.599 1110.994 116.099 1108.744 111.599 1117.744 116.099"/>
    <line class="cls-5" x1="1761.09366" y1="116.09903" x2="1790.99369" y2="116.09903"/>
    <polygon class="cls-6" points="1797.744 116.099 1788.744 120.599 1790.994 116.099 1788.744 111.599 1797.744 116.099"/>
    <polygon class="cls-5" points="1797.744 116.099 1788.744 120.599 1790.994 116.099 1788.744 111.599 1797.744 116.099"/>
    <rect class="cls-7" x="1401.09366" y="236.09903" width="80" height="60" rx="9" ry="9"/>
    <path d="M2038.954,558.85366h1.36523l1.44141,2.209,1.459-2.209,1.2832.0293-2.11523,3.0293,2.209,3.2168H2043.249l-1.55859-2.35547-1.51172,2.35547h-1.33594l2.209-3.2168Zm-2.05859-2.332h1.07227v1.19531h-1.07227Zm0,2.36133h1.07227v6.24609h-1.07227Zm-3.95508-.0293h1.002v1.084a2.395,2.395,0,0,1,.60352-.77051,1.56483,1.56483,0,0,1,1.10742-.4541q.0293,0,.09961.00586t.24023.02344v1.11328a1.57536,1.57536,0,0,0-.17285-.02344q-.0791-.00586-.17285-.00586a1.50507,1.50507,0,0,0-1.22461.5127,1.78959,1.78959,0,0,0-.42773,1.18066v3.60938h-1.05469Zm-3.14648-1.752h1.06641v1.752h1.002v.86133h-1.002v4.0957a.44318.44318,0,0,0,.22266.43945.9464.9464,0,0,0,.41016.06445q.07617,0,.16406-.00293t.20508-.01465v.832a2.35443,2.35443,0,0,1-.37793.07617,3.59308,3.59308,0,0,1-.4248.02344,1.14491,1.14491,0,0,1-1.002-.37793,1.67951,1.67951,0,0,1-.26367-.98145V559.715h-.84961v-.86133h.84961Zm-3.51953,4.22461a.573.573,0,0,0,.48633-.30469.92708.92708,0,0,0,.07031-.4043.85656.85656,0,0,0-.38379-.78223,2.05909,2.05909,0,0,0-1.09863-.24316,1.396,1.396,0,0,0-1.17187.44531,1.46507,1.46507,0,0,0-.252.73242h-.98437a1.81185,1.81185,0,0,1,.75293-1.61426,3.09137,3.09137,0,0,1,1.67871-.4541,3.41568,3.41568,0,0,1,1.79883.42188,1.43124,1.43124,0,0,1,.68555,1.3125v3.61523a.46289.46289,0,0,0,.06738.26367.325.325,0,0,0,.28418.09961q.07031,0,.1582-.00879t.1875-.02637v.7793a2.93737,2.93737,0,0,1-.375.08789,2.74041,2.74041,0,0,1-.35156.01758.86745.86745,0,0,1-.791-.38672,1.49245,1.49245,0,0,1-.18164-.58008,2.68334,2.68334,0,0,1-.92578.73242,2.86365,2.86365,0,0,1-1.33008.31055,1.97788,1.97788,0,0,1-1.42676-.53027,1.76138,1.76138,0,0,1-.55371-1.32715,1.70939,1.70939,0,0,1,.54492-1.35352,2.59268,2.59268,0,0,1,1.42969-.5918Zm-2.2207,2.85352a1.23828,1.23828,0,0,0,.791.26367,2.405,2.405,0,0,0,1.07813-.25781,1.451,1.451,0,0,0,.87891-1.40039v-.84961a1.80437,1.80437,0,0,1-.498.20508,4.244,4.244,0,0,1-.59766.11719l-.63867.082a2.44266,2.44266,0,0,0-.86133.24023.93585.93585,0,0,0-.48633.87891A.86855.86855,0,0,0,2024.05366,564.17983Zm-11.01562-7.6582h1.66992l2.47266,7.27734,2.45508-7.27734h1.65234v8.60742h-1.10742V560.049q0-.26367.01172-.873t.01172-1.30664l-2.45508,7.25977h-1.1543l-2.47266-7.25977v.26367q0,.31641.01465.96387t.01465.95215v5.08008H2013.038Z" transform="translate(-588.3721 -302.53002)"/>
    <path d="M2048.94037,572.85366h1.002v1.084a2.395,2.395,0,0,1,.60352-.77051,1.56483,1.56483,0,0,1,1.10742-.4541q.0293,0,.09961.00586t.24024.02344v1.11328a1.57536,1.57536,0,0,0-.17285-.02344q-.0791-.00586-.17285-.00586a1.50507,1.50507,0,0,0-1.22461.5127,1.78959,1.78959,0,0,0-.42773,1.18066v3.60938h-1.05469Zm-2.40625,2.63672a2.73249,2.73249,0,0,0-.29883-1.0957,1.5316,1.5316,0,0,0-1.44727-.76172,1.60426,1.60426,0,0,0-1.21875.52441,1.981,1.981,0,0,0-.52148,1.333Zm-.38672-2.46387a2.38792,2.38792,0,0,1,.95508.81152,2.79976,2.79976,0,0,1,.42188,1.10742,7.24548,7.24548,0,0,1,.09375,1.38281h-4.59961a2.684,2.684,0,0,0,.45117,1.53223,1.51072,1.51072,0,0,0,1.30664.57715,1.68916,1.68916,0,0,0,1.31836-.54492,1.837,1.837,0,0,0,.39844-.73242h1.03711a2.18426,2.18426,0,0,1-.27246.77051,2.74042,2.74042,0,0,1-.51856.69434,2.45779,2.45779,0,0,1-1.18945.63281,3.61335,3.61335,0,0,1-.86133.09375,2.64277,2.64277,0,0,1-1.98633-.85254,3.31718,3.31718,0,0,1-.81445-2.3877,3.60678,3.60678,0,0,1,.82031-2.45508,2.70617,2.70617,0,0,1,2.14453-.94336A2.86248,2.86248,0,0,1,2046.14741,573.02651Zm-9.39258-.17285,1.67578,5.10938,1.752-5.10937h1.1543l-2.36719,6.27539h-1.125l-2.31445-6.27539Zm-3.17187-2.332h1.07227v1.19531H2033.583Zm0,2.36133h1.07227v6.24609H2033.583Zm-2.377,2.60742a2.73249,2.73249,0,0,0-.29883-1.0957,1.5316,1.5316,0,0,0-1.44727-.76172,1.60426,1.60426,0,0,0-1.21875.52441,1.981,1.981,0,0,0-.52148,1.333Zm-.38672-2.46387a2.38792,2.38792,0,0,1,.95508.81152,2.79976,2.79976,0,0,1,.42188,1.10742,7.24548,7.24548,0,0,1,.09375,1.38281h-4.59961a2.684,2.684,0,0,0,.45117,1.53223,1.51072,1.51072,0,0,0,1.30664.57715,1.68916,1.68916,0,0,0,1.31836-.54492,1.837,1.837,0,0,0,.39844-.73242h1.03711a2.18426,2.18426,0,0,1-.27246.77051,2.74042,2.74042,0,0,1-.51856.69434,2.45779,2.45779,0,0,1-1.18945.63281,3.61335,3.61335,0,0,1-.86133.09375,2.64277,2.64277,0,0,1-1.98633-.85254,3.31718,3.31718,0,0,1-.81445-2.3877,3.60678,3.60678,0,0,1,.82031-2.45508,2.70617,2.70617,0,0,1,2.14453-.94336A2.86248,2.86248,0,0,1,2030.81928,573.02651Zm-5.76269.16113a2.47018,2.47018,0,0,1,.7998,1.77539H2024.831a1.893,1.893,0,0,0-.42773-.96387,1.35114,1.35114,0,0,0-1.07227-.38379,1.48159,1.48159,0,0,0-1.44141.98438,3.91031,3.91031,0,0,0-.28125,1.57617,2.966,2.966,0,0,0,.39844,1.58789,1.54464,1.54464,0,0,0,2.29395.24316,2.207,2.207,0,0,0,.53027-1.09863h1.02539a2.47976,2.47976,0,0,1-2.67773,2.40234,2.40127,2.40127,0,0,1-1.96289-.89941,3.44251,3.44251,0,0,1-.73242-2.24707,3.78564,3.78564,0,0,1,.80273-2.57227,2.59389,2.59389,0,0,1,2.04492-.91992A2.73605,2.73605,0,0,1,2025.05659,573.18765Zm-6.52246,2.30273a2.73249,2.73249,0,0,0-.29883-1.0957,1.5316,1.5316,0,0,0-1.44727-.76172,1.60426,1.60426,0,0,0-1.21875.52441,1.981,1.981,0,0,0-.52148,1.333Zm-.38672-2.46387a2.38792,2.38792,0,0,1,.95508.81152,2.79976,2.79976,0,0,1,.42188,1.10742,7.24548,7.24548,0,0,1,.09375,1.38281h-4.59961a2.684,2.684,0,0,0,.45117,1.53223,1.51072,1.51072,0,0,0,1.30664.57715,1.68916,1.68916,0,0,0,1.31836-.54492,1.837,1.837,0,0,0,.39844-.73242h1.03711a2.18426,2.18426,0,0,1-.27246.77051,2.74042,2.74042,0,0,1-.51856.69434,2.45779,2.45779,0,0,1-1.18945.63281,3.61335,3.61335,0,0,1-.86133.09375,2.64277,2.64277,0,0,1-1.98633-.85254,3.31718,3.31718,0,0,1-.81445-2.3877,3.60678,3.60678,0,0,1,.82031-2.45508,2.70617,2.70617,0,0,1,2.14453-.94336A2.86248,2.86248,0,0,1,2018.14741,573.02651Zm-12.2832-2.50488h3.98438a3.97373,3.97373,0,0,1,1.623.28711,2.03279,2.03279,0,0,1,1.21289,2.0332,2.11729,2.11729,0,0,1-1.21289,2.05664,1.76069,1.76069,0,0,1,.75879.53906,1.936,1.936,0,0,1,.28418,1.084l.041,1.1543a3.54834,3.54834,0,0,0,.082.73242.72017.72017,0,0,0,.375.52734v.19336H2011.583a1.0754,1.0754,0,0,1-.09375-.28711,5.511,5.511,0,0,1-.05859-.67969l-.07031-1.43555a1.20616,1.20616,0,0,0-.627-1.13086,2.59316,2.59316,0,0,0-1.04883-.1582h-2.6543v3.69141h-1.166Zm3.86133,3.94336a2.25965,2.25965,0,0,0,1.29785-.32812,1.33575,1.33575,0,0,0,.47754-1.18359,1.2699,1.2699,0,0,0-.668-1.25391,2.18288,2.18288,0,0,0-.95508-.17578h-2.84766V574.465Z" transform="translate(-588.3721 -302.53002)"/>
    <rect class="cls-8" x="1561.09366" y="136.09903" width="80" height="60" rx="9" ry="9"/>
    <path d="M2210.5517,458.85366h1.002v.89063a2.8103,2.8103,0,0,1,.94336-.791,2.51566,2.51566,0,0,1,1.10742-.24023,1.826,1.826,0,0,1,1.80469.93164,3.30818,3.30818,0,0,1,.25781,1.459v4.02539h-1.07227V461.174a2.14165,2.14165,0,0,0-.16992-.92578,1.03015,1.03015,0,0,0-1.01953-.58594,2.076,2.076,0,0,0-.61523.07617,1.58441,1.58441,0,0,0-.76172.51563,1.55236,1.55236,0,0,0-.34277.6416,4.31877,4.31877,0,0,0-.0791.94629v3.28711h-1.05469Zm-2.08984.627a3.1576,3.1576,0,0,1,.83789,2.37891,4.08148,4.08148,0,0,1-.73828,2.50781,2.67065,2.67065,0,0,1-2.291.99023,2.58641,2.58641,0,0,1-2.05664-.876,3.46,3.46,0,0,1-.76172-2.35254,3.74329,3.74329,0,0,1,.80273-2.51953,2.694,2.694,0,0,1,2.15625-.9375A2.8416,2.8416,0,0,1,2208.46186,459.48061Zm-.65332,4.1748a3.95541,3.95541,0,0,0,.38965-1.7666,3.14542,3.14542,0,0,0-.28125-1.42969,1.58214,1.58214,0,0,0-1.53516-.86719,1.51385,1.51385,0,0,0-1.40625.73828,3.42209,3.42209,0,0,0-.43945,1.78125,2.9767,2.9767,0,0,0,.43945,1.66992,1.54779,1.54779,0,0,0,1.39453.668A1.45453,1.45453,0,0,0,2207.80854,463.65542Zm-6.585-7.13379h1.07227v1.19531h-1.07227Zm0,2.36133h1.07227v6.24609h-1.07227Zm-3.11719-1.78125h1.06641v1.752h1.002v.86133h-1.002v4.0957a.44318.44318,0,0,0,.22266.43945.9464.9464,0,0,0,.41016.06445q.07617,0,.16406-.00293t.20508-.01465v.832a2.35443,2.35443,0,0,1-.37793.07617,3.59308,3.59308,0,0,1-.4248.02344,1.14491,1.14491,0,0,1-1.002-.37793,1.67951,1.67951,0,0,1-.26367-.98145V459.715h-.84961v-.86133h.84961Zm-3.51953,4.22461a.573.573,0,0,0,.48633-.30469.92708.92708,0,0,0,.07031-.4043.85656.85656,0,0,0-.38379-.78223,2.05909,2.05909,0,0,0-1.09863-.24316,1.396,1.396,0,0,0-1.17187.44531,1.46507,1.46507,0,0,0-.252.73242h-.98437a1.81185,1.81185,0,0,1,.75293-1.61426,3.09137,3.09137,0,0,1,1.67871-.4541,3.41568,3.41568,0,0,1,1.79883.42188,1.43124,1.43124,0,0,1,.68555,1.3125v3.61523a.46289.46289,0,0,0,.06738.26367.325.325,0,0,0,.28418.09961q.07031,0,.1582-.00879t.1875-.02637v.7793a2.93737,2.93737,0,0,1-.375.08789,2.74041,2.74041,0,0,1-.35156.01758.86745.86745,0,0,1-.791-.38672,1.49245,1.49245,0,0,1-.18164-.58008,2.68334,2.68334,0,0,1-.92578.73242,2.86365,2.86365,0,0,1-1.33008.31055,1.97788,1.97788,0,0,1-1.42676-.53027,1.76138,1.76138,0,0,1-.55371-1.32715,1.70939,1.70939,0,0,1,.54492-1.35352,2.59268,2.59268,0,0,1,1.42969-.5918Zm-2.2207,2.85352a1.23828,1.23828,0,0,0,.791.26367,2.405,2.405,0,0,0,1.07813-.25781,1.451,1.451,0,0,0,.87891-1.40039v-.84961a1.80437,1.80437,0,0,1-.498.20508,4.244,4.244,0,0,1-.59766.11719l-.63867.082a2.44266,2.44266,0,0,0-.86133.24023.93585.93585,0,0,0-.48633.87891A.86855.86855,0,0,0,2192.36616,464.17983Zm-3.76953-7.6582h1.05469v8.60742h-1.05469Zm-5.64648,2.332v4.166a1.75657,1.75657,0,0,0,.15234.78516,1.063,1.063,0,0,0,1.04883.5625,1.48244,1.48244,0,0,0,1.5-.98437,3.90552,3.90552,0,0,0,.2168-1.44727v-3.082h1.05469v6.27539h-.99609l.01172-.92578a2.1275,2.1275,0,0,1-.50977.60352,2.24313,2.24313,0,0,1-1.46484.49219,1.88958,1.88958,0,0,1-1.82812-.89648,2.66992,2.66992,0,0,1-.26367-1.2832v-4.26562Zm-11.03906,0h1.043v.89063a3.50555,3.50555,0,0,1,.67969-.67383,2.04413,2.04413,0,0,1,1.18359-.35742,1.86277,1.86277,0,0,1,1.207.36914,1.92945,1.92945,0,0,1,.46875.62109,2.27961,2.27961,0,0,1,.82617-.74707,2.30452,2.30452,0,0,1,1.06641-.24316,1.74388,1.74388,0,0,1,1.72266.91406,2.98782,2.98782,0,0,1,.24609,1.32422v4.17773h-1.0957v-4.35937a1.01533,1.01533,0,0,0-.31348-.86133,1.24068,1.24068,0,0,0-.76465-.23437,1.51787,1.51787,0,0,0-1.06934.416,1.82686,1.82686,0,0,0-.44824,1.38867v3.65039h-1.07227v-4.0957a2.128,2.128,0,0,0-.15234-.93164.929.929,0,0,0-.89648-.43945,1.54686,1.54686,0,0,0-1.08691.46289,2.26862,2.26862,0,0,0-.48926,1.67578v3.32813h-1.05469Zm-2.65625-2.332h1.07227v1.19531h-1.07227Zm0,2.36133h1.07227v6.24609h-1.07227Zm-7.09766,3.46875a2.35228,2.35228,0,0,0,.3457,1.18945,2.29131,2.29131,0,0,0,2.04492.85547,3.6196,3.6196,0,0,0,1.19531-.1875,1.32815,1.32815,0,0,0,1.043-1.30078,1.123,1.123,0,0,0-.43945-1.002,4.43728,4.43728,0,0,0-1.39453-.50977l-1.166-.26367a5.27982,5.27982,0,0,1-1.61719-.56836,1.80055,1.80055,0,0,1-.82031-1.61133,2.48123,2.48123,0,0,1,.80273-1.9043,3.22061,3.22061,0,0,1,2.27344-.74414,3.94865,3.94865,0,0,1,2.29981.65332,2.35791,2.35791,0,0,1,.94629,2.08887h-1.0957a2.15673,2.15673,0,0,0-.375-1.06055,2.17866,2.17866,0,0,0-1.81055-.67383,2.09442,2.09442,0,0,0-1.48242.43359,1.357,1.357,0,0,0-.45117,1.00781.98417.98417,0,0,0,.52734.92578,7.7387,7.7387,0,0,0,1.56445.46875l1.207.27539a3.69825,3.69825,0,0,1,1.34766.54492,2.04046,2.04046,0,0,1,.82031,1.752,2.187,2.187,0,0,1-1.04,2.04492,4.6578,4.6578,0,0,1-2.417.61523,3.61425,3.61425,0,0,1-2.51367-.82031,2.7678,2.7678,0,0,1-.89062-2.209Z" transform="translate(-588.3721 -302.53002)"/>
    <path d="M2198.954,472.85366h1.36523l1.44141,2.209,1.459-2.209,1.2832.0293-2.11523,3.0293,2.209,3.2168H2203.249l-1.55859-2.35547-1.51172,2.35547h-1.33594l2.209-3.2168Zm-2.05859-2.332h1.07227v1.19531h-1.07227Zm0,2.36133h1.07227v6.24609h-1.07227Zm-3.95508-.0293h1.002v1.084a2.395,2.395,0,0,1,.60352-.77051,1.56483,1.56483,0,0,1,1.10742-.4541q.0293,0,.09961.00586t.24024.02344v1.11328a1.57536,1.57536,0,0,0-.17285-.02344q-.0791-.00586-.17285-.00586a1.50507,1.50507,0,0,0-1.22461.5127,1.78959,1.78959,0,0,0-.42773,1.18066v3.60938h-1.05469Zm-3.14648-1.752h1.06641v1.752h1.002v.86133h-1.002v4.0957a.44318.44318,0,0,0,.22266.43945.9464.9464,0,0,0,.41016.06445q.07617,0,.16406-.00293t.20508-.01465v.832a2.35443,2.35443,0,0,1-.37793.07617,3.59308,3.59308,0,0,1-.4248.02344,1.14491,1.14491,0,0,1-1.002-.37793,1.67951,1.67951,0,0,1-.26367-.98145V473.715h-.84961v-.86133h.84961Zm-3.51953,4.22461a.573.573,0,0,0,.48633-.30469.92708.92708,0,0,0,.07031-.4043.85656.85656,0,0,0-.38379-.78223,2.05909,2.05909,0,0,0-1.09863-.24316,1.396,1.396,0,0,0-1.17187.44531,1.46507,1.46507,0,0,0-.252.73242h-.98437a1.81185,1.81185,0,0,1,.75293-1.61426,3.09137,3.09137,0,0,1,1.67871-.4541,3.41568,3.41568,0,0,1,1.79883.42188,1.43124,1.43124,0,0,1,.68555,1.3125v3.61523a.46289.46289,0,0,0,.06738.26367.325.325,0,0,0,.28418.09961q.07031,0,.1582-.00879t.1875-.02637v.7793a2.93737,2.93737,0,0,1-.375.08789,2.74041,2.74041,0,0,1-.35156.01758.86745.86745,0,0,1-.791-.38672,1.49245,1.49245,0,0,1-.18164-.58008,2.68334,2.68334,0,0,1-.92578.73242,2.86365,2.86365,0,0,1-1.33008.31055,1.97788,1.97788,0,0,1-1.42676-.53027,1.76138,1.76138,0,0,1-.55371-1.32715,1.70939,1.70939,0,0,1,.54492-1.35352,2.59268,2.59268,0,0,1,1.42969-.5918Zm-2.2207,2.85352a1.23828,1.23828,0,0,0,.791.26367,2.405,2.405,0,0,0,1.07813-.25781,1.451,1.451,0,0,0,.87891-1.40039v-.84961a1.80437,1.80437,0,0,1-.498.20508,4.244,4.244,0,0,1-.59766.11719l-.63867.082a2.44266,2.44266,0,0,0-.86133.24023.93585.93585,0,0,0-.48633.87891A.86855.86855,0,0,0,2184.05366,478.17983Zm-11.01562-7.6582h1.66992l2.47266,7.27734,2.45508-7.27734h1.65234v8.60742h-1.10742V474.049q0-.26367.01172-.873t.01172-1.30664l-2.45508,7.25977h-1.1543l-2.47266-7.25977v.26367q0,.31641.01465.96387t.01465.95215v5.08008H2173.038Z" transform="translate(-588.3721 -302.53002)"/>
    <rect class="cls-8" x="1401.09366" y="136.09903" width="80" height="60" rx="9" ry="9"/>
    <path d="M2056.60639,457.10171h1.06641v1.752h1.002v.86133h-1.002v4.0957a.44318.44318,0,0,0,.22266.43945.9464.9464,0,0,0,.41016.06445q.07617,0,.16406-.00293t.20508-.01465v.832a2.35443,2.35443,0,0,1-.37793.07617,3.59308,3.59308,0,0,1-.4248.02344,1.14491,1.14491,0,0,1-1.002-.37793,1.67951,1.67951,0,0,1-.26367-.98145V459.715h-.84961v-.86133h.84961Zm-6.88281,1.752h1.002v.89063a2.8103,2.8103,0,0,1,.94336-.791,2.51566,2.51566,0,0,1,1.10742-.24023,1.826,1.826,0,0,1,1.80469.93164,3.30818,3.30818,0,0,1,.25781,1.459v4.02539h-1.07227V461.174a2.14165,2.14165,0,0,0-.16992-.92578,1.03015,1.03015,0,0,0-1.01953-.58594,2.076,2.076,0,0,0-.61523.07617,1.58441,1.58441,0,0,0-.76172.51563,1.55236,1.55236,0,0,0-.34277.6416,4.31877,4.31877,0,0,0-.0791.94629v3.28711h-1.05469Zm-2.377,2.63672a2.73249,2.73249,0,0,0-.29883-1.0957,1.5316,1.5316,0,0,0-1.44727-.76172,1.60426,1.60426,0,0,0-1.21875.52441,1.981,1.981,0,0,0-.52148,1.333Zm-.38672-2.46387a2.38792,2.38792,0,0,1,.95508.81152,2.79976,2.79976,0,0,1,.42188,1.10742,7.24548,7.24548,0,0,1,.09375,1.38281H2043.831a2.684,2.684,0,0,0,.45117,1.53223,1.51072,1.51072,0,0,0,1.30664.57715,1.68916,1.68916,0,0,0,1.31836-.54492,1.837,1.837,0,0,0,.39844-.73242h1.03711a2.18426,2.18426,0,0,1-.27246.77051,2.74042,2.74042,0,0,1-.51855.69434,2.45779,2.45779,0,0,1-1.18945.63281,3.61335,3.61335,0,0,1-.86133.09375,2.64277,2.64277,0,0,1-1.98633-.85254,3.31718,3.31718,0,0,1-.81445-2.3877,3.60678,3.60678,0,0,1,.82031-2.45508,2.70617,2.70617,0,0,1,2.14453-.94336A2.86248,2.86248,0,0,1,2046.95991,459.02651Zm-13.89258-.17285h1.043v.89063a3.50555,3.50555,0,0,1,.67969-.67383,2.04413,2.04413,0,0,1,1.18359-.35742,1.86277,1.86277,0,0,1,1.207.36914,1.92945,1.92945,0,0,1,.46875.62109,2.27961,2.27961,0,0,1,.82617-.74707,2.30452,2.30452,0,0,1,1.06641-.24316,1.74388,1.74388,0,0,1,1.72266.91406,2.98782,2.98782,0,0,1,.24609,1.32422v4.17773h-1.0957v-4.35937a1.01533,1.01533,0,0,0-.31348-.86133,1.24068,1.24068,0,0,0-.76465-.23437,1.51787,1.51787,0,0,0-1.06934.416,1.82686,1.82686,0,0,0-.44824,1.38867v3.65039H2036.747v-4.0957a2.128,2.128,0,0,0-.15234-.93164.929.929,0,0,0-.89648-.43945,1.54686,1.54686,0,0,0-1.08691.46289,2.26862,2.26862,0,0,0-.48926,1.67578v3.32813h-1.05469Zm-3.11719-1.752h1.06641v1.752h1.002v.86133h-1.002v4.0957a.44318.44318,0,0,0,.22266.43945.9464.9464,0,0,0,.41016.06445q.07617,0,.16406-.00293t.20508-.01465v.832a2.35443,2.35443,0,0,1-.37793.07617,3.59308,3.59308,0,0,1-.4248.02344,1.14491,1.14491,0,0,1-1.002-.37793,1.67951,1.67951,0,0,1-.26367-.98145V459.715h-.84961v-.86133h.84961Zm-5.584,6.05859a1.53376,1.53376,0,0,0,.26367.80859,1.657,1.657,0,0,0,1.38281.50977,2.03934,2.03934,0,0,0,1.03125-.25488.8464.8464,0,0,0,.44531-.78809.67393.67393,0,0,0-.35742-.61523,4.2495,4.2495,0,0,0-.90234-.29883l-.83789-.21094a4.08742,4.08742,0,0,1-1.18359-.44531,1.331,1.331,0,0,1-.67969-1.18359,1.80845,1.80845,0,0,1,.6416-1.44141,2.55952,2.55952,0,0,1,1.72559-.55078,2.39548,2.39548,0,0,1,2.04492.832,1.80562,1.80562,0,0,1,.38086,1.13672h-.99609a1.22019,1.22019,0,0,0-.252-.65039,1.60688,1.60688,0,0,0-1.25977-.416,1.50582,1.50582,0,0,0-.90527.22852.71617.71617,0,0,0-.30762.60352.74288.74288,0,0,0,.4043.65625,2.42949,2.42949,0,0,0,.69141.25781l.69727.16992a5.39113,5.39113,0,0,1,1.52344.5332,1.41183,1.41183,0,0,1,.61523,1.27148,1.93765,1.93765,0,0,1-.63574,1.44727,2.70627,2.70627,0,0,1-1.93652.60938,2.59822,2.59822,0,0,1-1.9834-.63574,2.40425,2.40425,0,0,1-.624-1.57324Zm-6.24414-4.30664v4.166a1.75657,1.75657,0,0,0,.15234.78516,1.063,1.063,0,0,0,1.04883.5625,1.48244,1.48244,0,0,0,1.5-.98437,3.90552,3.90552,0,0,0,.2168-1.44727v-3.082h1.05469v6.27539h-.99609l.01172-.92578a2.1275,2.1275,0,0,1-.50977.60352,2.24313,2.24313,0,0,1-1.46484.49219,1.88958,1.88958,0,0,1-1.82812-.89648,2.66992,2.66992,0,0,1-.26367-1.2832v-4.26562Zm-4.707,7.86328a2.09932,2.09932,0,0,0,.85254-.126q.14355-.10254.14355-.6416V458.883h1.05469v7.17773a1.89361,1.89361,0,0,1-.22266,1.02539,1.5399,1.5399,0,0,1-1.40039.57422q-.07617,0-.16113-.00586t-.2666-.02344Zm2.05078-8.97656h-1.05469v-1.21875h1.05469Zm-4.26367,1.30664a2.83525,2.83525,0,0,1,.63867.61523v-3.16992h1.01367v8.63672h-.94922v-.873a2.28188,2.28188,0,0,1-.873.83789,2.499,2.499,0,0,1-1.1543.25781,2.33749,2.33749,0,0,1-1.81641-.88184,3.44768,3.44768,0,0,1-.76758-2.34668,4.05089,4.05089,0,0,1,.7002-2.376,2.29238,2.29238,0,0,1,2.001-1.00488A2.23264,2.23264,0,0,1,2011.20209,459.047Zm-2.36719,4.70508a1.49879,1.49879,0,0,0,1.37109.67969,1.4441,1.4441,0,0,0,1.2041-.62988,2.97472,2.97472,0,0,0,.47168-1.80762,2.673,2.673,0,0,0-.48633-1.76074,1.517,1.517,0,0,0-1.20117-.57129,1.58566,1.58566,0,0,0-1.292.60938,2.791,2.791,0,0,0-.49512,1.793A3.11064,3.11064,0,0,0,2008.83491,463.7521Zm-6.45312-7.23047h1.31836l3.123,8.60742h-1.27734l-.873-2.57812h-3.4043l-.93164,2.57813h-1.19531Zm1.916,5.08008-1.30664-3.80273-1.38867,3.80273Z" transform="translate(-588.3721 -302.53002)"/>
    <path d="M2038.954,472.85366h1.36523l1.44141,2.209,1.459-2.209,1.2832.0293-2.11523,3.0293,2.209,3.2168H2043.249l-1.55859-2.35547-1.51172,2.35547h-1.33594l2.209-3.2168Zm-2.05859-2.332h1.07227v1.19531h-1.07227Zm0,2.36133h1.07227v6.24609h-1.07227Zm-3.95508-.0293h1.002v1.084a2.395,2.395,0,0,1,.60352-.77051,1.56483,1.56483,0,0,1,1.10742-.4541q.0293,0,.09961.00586t.24023.02344v1.11328a1.57536,1.57536,0,0,0-.17285-.02344q-.0791-.00586-.17285-.00586a1.50507,1.50507,0,0,0-1.22461.5127,1.78959,1.78959,0,0,0-.42773,1.18066v3.60938h-1.05469Zm-3.14648-1.752h1.06641v1.752h1.002v.86133h-1.002v4.0957a.44318.44318,0,0,0,.22266.43945.9464.9464,0,0,0,.41016.06445q.07617,0,.16406-.00293t.20508-.01465v.832a2.35443,2.35443,0,0,1-.37793.07617,3.59308,3.59308,0,0,1-.4248.02344,1.14491,1.14491,0,0,1-1.002-.37793,1.67951,1.67951,0,0,1-.26367-.98145V473.715h-.84961v-.86133h.84961Zm-3.51953,4.22461a.573.573,0,0,0,.48633-.30469.92708.92708,0,0,0,.07031-.4043.85656.85656,0,0,0-.38379-.78223,2.05909,2.05909,0,0,0-1.09863-.24316,1.396,1.396,0,0,0-1.17187.44531,1.46507,1.46507,0,0,0-.252.73242h-.98437a1.81185,1.81185,0,0,1,.75293-1.61426,3.09137,3.09137,0,0,1,1.67871-.4541,3.41568,3.41568,0,0,1,1.79883.42188,1.43124,1.43124,0,0,1,.68555,1.3125v3.61523a.46289.46289,0,0,0,.06738.26367.325.325,0,0,0,.28418.09961q.07031,0,.1582-.00879t.1875-.02637v.7793a2.93737,2.93737,0,0,1-.375.08789,2.74041,2.74041,0,0,1-.35156.01758.86745.86745,0,0,1-.791-.38672,1.49245,1.49245,0,0,1-.18164-.58008,2.68334,2.68334,0,0,1-.92578.73242,2.86365,2.86365,0,0,1-1.33008.31055,1.97788,1.97788,0,0,1-1.42676-.53027,1.76138,1.76138,0,0,1-.55371-1.32715,1.70939,1.70939,0,0,1,.54492-1.35352,2.59268,2.59268,0,0,1,1.42969-.5918Zm-2.2207,2.85352a1.23828,1.23828,0,0,0,.791.26367,2.405,2.405,0,0,0,1.07813-.25781,1.451,1.451,0,0,0,.87891-1.40039v-.84961a1.80437,1.80437,0,0,1-.498.20508,4.244,4.244,0,0,1-.59766.11719l-.63867.082a2.44266,2.44266,0,0,0-.86133.24023.93585.93585,0,0,0-.48633.87891A.86855.86855,0,0,0,2024.05366,478.17983Zm-11.01562-7.6582h1.66992l2.47266,7.27734,2.45508-7.27734h1.65234v8.60742h-1.10742V474.049q0-.26367.01172-.873t.01172-1.30664l-2.45508,7.25977h-1.1543l-2.47266-7.25977v.26367q0,.31641.01465.96387t.01465.95215v5.08008H2013.038Z" transform="translate(-588.3721 -302.53002)"/>
    <rect class="cls-8" x="1241.09366" y="136.09903" width="80" height="60" rx="9" ry="9"/>
    <path d="M1898.48725,459.37661h.91846v.81641a2.57634,2.57634,0,0,1,.86475-.7251,2.30582,2.30582,0,0,1,1.01514-.22021,1.6738,1.6738,0,0,1,1.6543.854,3.03236,3.03236,0,0,1,.23633,1.3374v3.68994h-.98291v-3.62549a1.963,1.963,0,0,0-.15576-.84863.94432.94432,0,0,0-.93457-.53711,1.90339,1.90339,0,0,0-.564.06982,1.45231,1.45231,0,0,0-.69824.47266,1.42311,1.42311,0,0,0-.31421.58813,3.95877,3.95877,0,0,0-.07251.86743v3.01318h-.9668Zm-1.90918.57471a2.89444,2.89444,0,0,1,.76807,2.18066,3.74138,3.74138,0,0,1-.67676,2.29883,2.4481,2.4481,0,0,1-2.1001.90771,2.37083,2.37083,0,0,1-1.88525-.803,3.17175,3.17175,0,0,1-.69824-2.15649,3.43128,3.43128,0,0,1,.73584-2.30957,2.46958,2.46958,0,0,1,1.97656-.85937A2.60482,2.60482,0,0,1,1896.57807,459.95132Zm-.59888,3.8269a3.62569,3.62569,0,0,0,.35718-1.61938,2.88328,2.88328,0,0,0-.25781-1.31055,1.4503,1.4503,0,0,0-1.40723-.79492,1.3877,1.3877,0,0,0-1.28906.67676,3.13694,3.13694,0,0,0-.40283,1.63281,2.72863,2.72863,0,0,0,.40283,1.53076,1.41881,1.41881,0,0,0,1.27832.6123A1.33333,1.33333,0,0,0,1895.97919,463.77822Zm-6.03882-6.53931h.98291v1.0957h-.98291Zm0,2.16455h.98291v5.72559h-.98291Zm-2.85352-1.63281h.97754v1.606h.91846v.78955h-.91846v3.75439a.40624.40624,0,0,0,.2041.40283.86764.86764,0,0,0,.376.05908q.06981,0,.15039-.00269t.188-.01343v.7627a2.15835,2.15835,0,0,1-.34644.06982,3.29271,3.29271,0,0,1-.3894.02148,1.0495,1.0495,0,0,1-.91846-.34644,1.53954,1.53954,0,0,1-.2417-.89966v-3.80811h-.77881v-.78955h.77881Zm-3.21973,3.87256a.52519.52519,0,0,0,.4458-.2793.84982.84982,0,0,0,.06445-.37061.78518.78518,0,0,0-.35181-.717,1.88755,1.88755,0,0,0-1.00708-.2229,1.27974,1.27974,0,0,0-1.07422.4082,1.34284,1.34284,0,0,0-.231.67139h-.90234a1.66085,1.66085,0,0,1,.69018-1.47974,2.83389,2.83389,0,0,1,1.53882-.41626,3.131,3.131,0,0,1,1.64892.38672,1.312,1.312,0,0,1,.62842,1.20313v3.314a.42437.42437,0,0,0,.06177.2417.29793.29793,0,0,0,.2605.09131q.06445,0,.145-.00806t.17188-.02417v.71436a2.693,2.693,0,0,1-.34375.08057,2.51181,2.51181,0,0,1-.32227.01611.79516.79516,0,0,1-.7251-.35449,1.36819,1.36819,0,0,1-.1665-.53174,2.45967,2.45967,0,0,1-.84863.67139,2.62508,2.62508,0,0,1-1.21924.28467,1.81306,1.81306,0,0,1-1.30786-.48608,1.61458,1.61458,0,0,1-.50757-1.21655,1.56691,1.56691,0,0,1,.49951-1.24072,2.37665,2.37665,0,0,1,1.31055-.54248Zm-2.03565,2.61572a1.13509,1.13509,0,0,0,.7251.2417,2.20468,2.20468,0,0,0,.98828-.23633,1.33,1.33,0,0,0,.80566-1.28369v-.77881a1.65445,1.65445,0,0,1-.45654.188,3.88827,3.88827,0,0,1-.54785.10742l-.58545.0752a2.239,2.239,0,0,0-.78955.22021.85785.85785,0,0,0-.4458.80566A.79617.79617,0,0,0,1881.83149,464.25893Zm-5.97266-.93457a1.40613,1.40613,0,0,0,.2417.74121,1.5189,1.5189,0,0,0,1.26758.46729,1.86939,1.86939,0,0,0,.94531-.23364.77588.77588,0,0,0,.4082-.72241.61778.61778,0,0,0-.32764-.564,3.89678,3.89678,0,0,0-.82715-.27393l-.76807-.19336a3.74649,3.74649,0,0,1-1.085-.4082,1.22,1.22,0,0,1-.623-1.085,1.65772,1.65772,0,0,1,.58814-1.32129,2.34626,2.34626,0,0,1,1.58179-.50488,2.19588,2.19588,0,0,1,1.87451.7627,1.65512,1.65512,0,0,1,.34912,1.042h-.91308a1.11858,1.11858,0,0,0-.231-.59619,1.473,1.473,0,0,0-1.15479-.38135,1.38034,1.38034,0,0,0-.82983.20947.6565.6565,0,0,0-.282.55322.681.681,0,0,0,.3706.60156,2.22691,2.22691,0,0,0,.63379.23633l.63916.15576a4.94174,4.94174,0,0,1,1.39648.48877,1.29419,1.29419,0,0,1,.564,1.16553,1.77614,1.77614,0,0,1-.58276,1.32666,2.48079,2.48079,0,0,1-1.77515.55859,2.38172,2.38172,0,0,1-1.81812-.58276,2.20378,2.20378,0,0,1-.572-1.44214Zm-6.68408-3.94775h.91846v.81641a2.57634,2.57634,0,0,1,.86475-.7251,2.30582,2.30582,0,0,1,1.01514-.22021,1.6738,1.6738,0,0,1,1.6543.854,3.03236,3.03236,0,0,1,.23633,1.3374v3.68994h-.98291v-3.62549a1.963,1.963,0,0,0-.15576-.84863.94432.94432,0,0,0-.93457-.53711,1.90339,1.90339,0,0,0-.564.06982,1.45231,1.45231,0,0,0-.69824.47266,1.42311,1.42311,0,0,0-.31421.58813,3.95877,3.95877,0,0,0-.07251.86743v3.01318h-.9668Zm-2.17236,2.417a2.50506,2.50506,0,0,0-.27393-1.00439,1.404,1.404,0,0,0-1.32666-.69824,1.47063,1.47063,0,0,0-1.11719.48071,1.816,1.816,0,0,0-.478,1.22192Zm-.35449-2.25854a2.18892,2.18892,0,0,1,.87549.7439,2.56644,2.56644,0,0,1,.38672,1.01514,6.64267,6.64267,0,0,1,.08594,1.26758h-4.21631a2.46038,2.46038,0,0,0,.41357,1.40454,1.38482,1.38482,0,0,0,1.19775.52905,1.5484,1.5484,0,0,0,1.2085-.49951,1.68406,1.68406,0,0,0,.36523-.67139h.95068a2.00183,2.00183,0,0,1-.24976.7063,2.51272,2.51272,0,0,1-.47534.63647,2.25306,2.25306,0,0,1-1.09033.58008,3.3121,3.3121,0,0,1-.78955.08594,2.4225,2.4225,0,0,1-1.8208-.78149,3.04078,3.04078,0,0,1-.74658-2.18872,3.30618,3.30618,0,0,1,.752-2.25049,2.48065,2.48065,0,0,1,1.96582-.86475A2.62411,2.62411,0,0,1,1866.64789,459.53506Zm-9.76709-.13159h.93994v.7627a2.34678,2.34678,0,0,1,.63379-.60693,2.04,2.04,0,0,1,1.14941-.32227,2.16128,2.16128,0,0,1,1.65967.74927,3.06989,3.06989,0,0,1,.68213,2.14038,3.28665,3.28665,0,0,1-.98291,2.68555,2.22079,2.22079,0,0,1-1.4502.51025,1.96854,1.96854,0,0,1-1.09033-.28467,2.51221,2.51221,0,0,1-.57471-.55322v2.938h-.9668Zm3.62817,4.509a2.69662,2.69662,0,0,0,.44849-1.69458,3.1633,3.1633,0,0,0-.19873-1.18164,1.4562,1.4562,0,0,0-2.75.05371,3.98088,3.98088,0,0,0-.19873,1.36426,2.89221,2.89221,0,0,0,.19873,1.1333,1.46024,1.46024,0,0,0,2.50024.325Zm-12.70923-4.53589h.95605v.81641a3.21369,3.21369,0,0,1,.623-.61768,1.87387,1.87387,0,0,1,1.085-.32764,1.70752,1.70752,0,0,1,1.10645.33838,1.76863,1.76863,0,0,1,.42969.56934,2.08947,2.08947,0,0,1,.75733-.68481,2.11257,2.11257,0,0,1,.97754-.2229,1.59856,1.59856,0,0,1,1.5791.83789,2.73885,2.73885,0,0,1,.22559,1.21387v3.82959h-1.00439V461.133a.93072.93072,0,0,0-.28735-.78955,1.13731,1.13731,0,0,0-.70093-.21484,1.39135,1.39135,0,0,0-.98022.38135,1.67466,1.67466,0,0,0-.41089,1.27295v3.34619h-.98291v-3.75439a1.95063,1.95063,0,0,0-.13965-.854.85161.85161,0,0,0-.82178-.40283,1.418,1.418,0,0,0-.99634.42432,2.0796,2.0796,0,0,0-.44849,1.53613v3.05078h-.9668Zm-1.90918.57471a2.89444,2.89444,0,0,1,.76807,2.18066,3.74138,3.74138,0,0,1-.67676,2.29883,2.4481,2.4481,0,0,1-2.1001.90771,2.37087,2.37087,0,0,1-1.88525-.803,3.17167,3.17167,0,0,1-.69824-2.15649,3.43136,3.43136,0,0,1,.73584-2.30957,2.46956,2.46956,0,0,1,1.97656-.85937A2.60482,2.60482,0,0,1,1845.89057,459.95132Zm-.59888,3.8269a3.62569,3.62569,0,0,0,.35718-1.61938,2.88328,2.88328,0,0,0-.25781-1.31055,1.4503,1.4503,0,0,0-1.40723-.79492,1.3877,1.3877,0,0,0-1.28906.67676,3.13694,3.13694,0,0,0-.40283,1.63281,2.72863,2.72863,0,0,0,.40283,1.53076,1.4188,1.4188,0,0,0,1.27832.6123A1.33333,1.33333,0,0,0,1845.29169,463.77822Zm-5.75952-5.9646a2.78833,2.78833,0,0,1,.91846,1.79395h-1.042a2.16863,2.16863,0,0,0-.7063-1.2085,2.23856,2.23856,0,0,0-1.48511-.4458,2.3815,2.3815,0,0,0-1.88257.81909,3.7337,3.7337,0,0,0-.717,2.511,3.64719,3.64719,0,0,0,.64722,2.2478,2.26139,2.26139,0,0,0,1.93091.86206,2.03993,2.03993,0,0,0,1.79932-.90771,3.45212,3.45212,0,0,0,.48877-1.25684h1.042a3.56048,3.56048,0,0,1-.92383,2.08936,3.28718,3.28718,0,0,1-2.53516,1.01514,3.346,3.346,0,0,1-2.30957-.83252,5.11816,5.11816,0,0,1-.30615-6.2627,3.3745,3.3745,0,0,1,2.75537-1.21387A3.23337,3.23337,0,0,1,1839.53217,457.81362Z" transform="translate(-588.3721 -302.53002)"/>
    <path d="M1878.954,472.85366h1.36523l1.44141,2.209,1.459-2.209,1.2832.0293-2.11523,3.0293,2.209,3.2168H1883.249l-1.55859-2.35547-1.51172,2.35547h-1.33594l2.209-3.2168Zm-2.05859-2.332h1.07227v1.19531h-1.07227Zm0,2.36133h1.07227v6.24609h-1.07227Zm-3.95508-.0293h1.002v1.084a2.395,2.395,0,0,1,.60352-.77051,1.56483,1.56483,0,0,1,1.10742-.4541q.0293,0,.09961.00586t.24023.02344v1.11328a1.57536,1.57536,0,0,0-.17285-.02344q-.0791-.00586-.17285-.00586a1.50507,1.50507,0,0,0-1.22461.5127,1.78959,1.78959,0,0,0-.42773,1.18066v3.60938h-1.05469Zm-3.14648-1.752h1.06641v1.752h1.002v.86133h-1.002v4.0957a.44318.44318,0,0,0,.22266.43945.9464.9464,0,0,0,.41016.06445q.07617,0,.16406-.00293t.20508-.01465v.832a2.35443,2.35443,0,0,1-.37793.07617,3.59308,3.59308,0,0,1-.4248.02344,1.14491,1.14491,0,0,1-1.002-.37793,1.67951,1.67951,0,0,1-.26367-.98145V473.715h-.84961v-.86133h.84961Zm-3.51953,4.22461a.573.573,0,0,0,.48633-.30469.92708.92708,0,0,0,.07031-.4043.85656.85656,0,0,0-.38379-.78223,2.05909,2.05909,0,0,0-1.09863-.24316,1.396,1.396,0,0,0-1.17187.44531,1.46507,1.46507,0,0,0-.252.73242h-.98437a1.81185,1.81185,0,0,1,.75293-1.61426,3.09137,3.09137,0,0,1,1.67871-.4541,3.41568,3.41568,0,0,1,1.79883.42188,1.43124,1.43124,0,0,1,.68555,1.3125v3.61523a.46289.46289,0,0,0,.06738.26367.325.325,0,0,0,.28418.09961q.07031,0,.1582-.00879t.1875-.02637v.7793a2.93737,2.93737,0,0,1-.375.08789,2.74041,2.74041,0,0,1-.35156.01758.86745.86745,0,0,1-.791-.38672,1.49245,1.49245,0,0,1-.18164-.58008,2.68334,2.68334,0,0,1-.92578.73242,2.86365,2.86365,0,0,1-1.33008.31055,1.97788,1.97788,0,0,1-1.42676-.53027,1.76138,1.76138,0,0,1-.55371-1.32715,1.70939,1.70939,0,0,1,.54492-1.35352,2.59268,2.59268,0,0,1,1.42969-.5918Zm-2.2207,2.85352a1.23828,1.23828,0,0,0,.791.26367,2.405,2.405,0,0,0,1.07813-.25781,1.451,1.451,0,0,0,.87891-1.40039v-.84961a1.80437,1.80437,0,0,1-.498.20508,4.244,4.244,0,0,1-.59766.11719l-.63867.082a2.44266,2.44266,0,0,0-.86133.24023.93585.93585,0,0,0-.48633.87891A.86855.86855,0,0,0,1864.05366,478.17983Zm-11.01562-7.6582h1.66992l2.47266,7.27734,2.45508-7.27734h1.65234v8.60742h-1.10742V474.049q0-.26367.01172-.873t.01172-1.30664l-2.45508,7.25977h-1.1543l-2.47266-7.25977v.26367q0,.31641.01465.96387t.01465.95215v5.08008H1853.038Z" transform="translate(-588.3721 -302.53002)"/>
    <circle class="cls-9" cx="1360.59366" cy="165.59903" r="10"/>
    <line class="cls-9" x1="1353.49366" y1="158.49902" x2="1367.69367" y2="172.69904"/>
    <line class="cls-9" x1="1367.69367" y1="158.49902" x2="1353.49366" y2="172.69904"/>
    <line class="cls-10" x1="1321.09366" y1="166.09903" x2="1340.99366" y2="166.09903"/>
    <polygon class="cls-11" points="1347.744 166.099 1338.744 170.599 1340.994 166.099 1338.744 161.599 1347.744 166.099"/>
    <polygon class="cls-10" points="1347.744 166.099 1338.744 170.599 1340.994 166.099 1338.744 161.599 1347.744 166.099"/>
    <rect x="1339.09171" y="176.71426" width="2.94141" height="1.08398"/>
    <line class="cls-10" x1="1371.09366" y1="166.09903" x2="1390.99366" y2="166.09903"/>
    <polygon class="cls-11" points="1397.744 166.099 1388.744 170.599 1390.994 166.099 1388.744 161.599 1397.744 166.099"/>
    <polygon class="cls-10" points="1397.744 166.099 1388.744 170.599 1390.994 166.099 1388.744 161.599 1397.744 166.099"/>
    <path class="cls-12" d="M1789.46577,418.62905h310q10,0,10,10v19.9" transform="translate(-588.3721 -302.53002)"/>
    <polygon class="cls-13" points="1521.094 152.749 1516.594 143.749 1521.094 145.999 1525.594 143.749 1521.094 152.749"/>
    <polygon class="cls-12" points="1521.094 152.749 1516.594 143.749 1521.094 145.999 1525.594 143.749 1521.094 152.749"/>
    <polygon points="1530.101 148.033 1530.101 147.048 1532.656 147.048 1532.656 144.476 1533.658 144.476 1533.658 147.048 1536.213 147.048 1536.213 148.033 1533.658 148.033 1533.658 150.599 1532.656 150.599 1532.656 148.033 1530.101 148.033"/>
    <circle class="cls-9" cx="1520.59366" cy="165.59903" r="10"/>
    <line class="cls-9" x1="1513.49369" y1="158.49902" x2="1527.69364" y2="172.69904"/>
    <line class="cls-9" x1="1527.69364" y1="158.49902" x2="1513.49369" y2="172.69904"/>
    <line class="cls-10" x1="1481.09366" y1="166.09903" x2="1500.99366" y2="166.09903"/>
    <polygon class="cls-11" points="1507.744 166.099 1498.744 170.599 1500.994 166.099 1498.744 161.599 1507.744 166.099"/>
    <polygon class="cls-10" points="1507.744 166.099 1498.744 170.599 1500.994 166.099 1498.744 161.599 1507.744 166.099"/>
    <polygon points="1498.133 178.033 1498.133 177.048 1500.687 177.048 1500.687 174.476 1501.689 174.476 1501.689 177.048 1504.244 177.048 1504.244 178.033 1501.689 178.033 1501.689 180.599 1500.687 180.599 1500.687 178.033 1498.133 178.033"/>
    <path class="cls-12" d="M1929.46577,418.62905h10q10,0,10,10v19.9" transform="translate(-588.3721 -302.53002)"/>
    <polygon class="cls-13" points="1361.094 152.749 1356.594 143.749 1361.094 145.999 1365.594 143.749 1361.094 152.749"/>
    <polygon class="cls-12" points="1361.094 152.749 1356.594 143.749 1361.094 145.999 1365.594 143.749 1361.094 152.749"/>
    <polygon points="1371.43 148.033 1371.43 147.048 1373.984 147.048 1373.984 144.476 1374.986 144.476 1374.986 147.048 1377.541 147.048 1377.541 148.033 1374.986 148.033 1374.986 150.599 1373.984 150.599 1373.984 148.033 1371.43 148.033"/>
    <path class="cls-12" d="M1789.46577,418.62905h10q10,0,10,10v30q0,10,4.95,10h4.95" transform="translate(-588.3721 -302.53002)"/>
    <polygon class="cls-13" points="1237.744 166.099 1228.744 170.599 1230.994 166.099 1228.744 161.599 1237.744 166.099"/>
    <polygon class="cls-12" points="1237.744 166.099 1228.744 170.599 1230.994 166.099 1228.744 161.599 1237.744 166.099"/>
    <rect class="cls-14" x="1221.59366" y="100.59903" width="55" height="14"/>
    <path d="M1862.07123,409.32632a.573.573,0,0,0,.48633-.30469.92708.92708,0,0,0,.07031-.4043.85656.85656,0,0,0-.38379-.78223,2.05909,2.05909,0,0,0-1.09863-.24316,1.396,1.396,0,0,0-1.17187.44531,1.46507,1.46507,0,0,0-.252.73242h-.98437a1.81185,1.81185,0,0,1,.75293-1.61426,3.09137,3.09137,0,0,1,1.67871-.4541,3.41568,3.41568,0,0,1,1.79883.42188,1.43124,1.43124,0,0,1,.68555,1.3125v3.61523a.46289.46289,0,0,0,.06738.26367.325.325,0,0,0,.28418.09961q.07031,0,.1582-.00879t.1875-.02637v.7793a2.93737,2.93737,0,0,1-.375.08789,2.74041,2.74041,0,0,1-.35156.01758.86745.86745,0,0,1-.791-.38672,1.49245,1.49245,0,0,1-.18164-.58008,2.68334,2.68334,0,0,1-.92578.73242,2.86365,2.86365,0,0,1-1.33008.31055,1.97788,1.97788,0,0,1-1.42676-.53027,1.76138,1.76138,0,0,1-.55371-1.32715,1.70939,1.70939,0,0,1,.54492-1.35352,2.59268,2.59268,0,0,1,1.42969-.5918Zm-2.2207,2.85352a1.23828,1.23828,0,0,0,.791.26367,2.405,2.405,0,0,0,1.07813-.25781,1.451,1.451,0,0,0,.87891-1.40039v-.84961a1.80437,1.80437,0,0,1-.498.20508,4.244,4.244,0,0,1-.59766.11719l-.63867.082a2.44266,2.44266,0,0,0-.86133.24023.93585.93585,0,0,0-.48633.87891A.86855.86855,0,0,0,1859.85053,412.17983Zm-4.25977-7.07812h1.06641v1.752h1.002v.86133h-1.002v4.0957a.44318.44318,0,0,0,.22266.43945.9464.9464,0,0,0,.41016.06445q.07617,0,.16406-.00293t.20508-.01465v.832a2.35443,2.35443,0,0,1-.37793.07617,3.59308,3.59308,0,0,1-.4248.02344,1.14491,1.14491,0,0,1-1.002-.37793,1.67951,1.67951,0,0,1-.26367-.98145V407.715h-.84961v-.86133h.84961Zm-3.51953,4.22461a.573.573,0,0,0,.48633-.30469.92708.92708,0,0,0,.07031-.4043.85656.85656,0,0,0-.38379-.78223,2.05909,2.05909,0,0,0-1.09863-.24316,1.396,1.396,0,0,0-1.17187.44531,1.46507,1.46507,0,0,0-.252.73242h-.98437a1.81185,1.81185,0,0,1,.75293-1.61426,3.09137,3.09137,0,0,1,1.67871-.4541,3.41568,3.41568,0,0,1,1.79883.42188,1.43124,1.43124,0,0,1,.68555,1.3125v3.61523a.46289.46289,0,0,0,.06738.26367.325.325,0,0,0,.28418.09961q.07031,0,.1582-.00879t.1875-.02637v.7793a2.93737,2.93737,0,0,1-.375.08789,2.74041,2.74041,0,0,1-.35156.01758.86745.86745,0,0,1-.791-.38672,1.49245,1.49245,0,0,1-.18164-.58008,2.68334,2.68334,0,0,1-.92578.73242,2.86365,2.86365,0,0,1-1.33008.31055,1.97788,1.97788,0,0,1-1.42676-.53027,1.76138,1.76138,0,0,1-.55371-1.32715,1.70939,1.70939,0,0,1,.54492-1.35352,2.59268,2.59268,0,0,1,1.42969-.5918Zm-2.2207,2.85352a1.23828,1.23828,0,0,0,.791.26367,2.405,2.405,0,0,0,1.07813-.25781,1.451,1.451,0,0,0,.87891-1.40039v-.84961a1.80437,1.80437,0,0,1-.498.20508,4.244,4.244,0,0,1-.59766.11719l-.63867.082a2.44266,2.44266,0,0,0-.86133.24023.93585.93585,0,0,0-.48633.87891A.86855.86855,0,0,0,1849.85053,412.17983Zm-9.60547-7.6582h3.48633a3.286,3.286,0,0,1,2.75391,1.25977,4.64446,4.64446,0,0,1,.873,2.91211,5.80209,5.80209,0,0,1-.51562,2.47852,3.18125,3.18125,0,0,1-3.123,1.957h-3.47461Zm3.252,7.61133a3.22264,3.22264,0,0,0,.97266-.123,2.13936,2.13936,0,0,0,1.11328-.87891,3.60183,3.60183,0,0,0,.498-1.33594,5.09568,5.09568,0,0,0,.08789-.90234,4.202,4.202,0,0,0-.63574-2.48437,2.34857,2.34857,0,0,0-2.04785-.88477h-2.06836V412.133Zm-14.66211-7.61133h3.69727a2.451,2.451,0,0,1,2.15039.90234,2.08523,2.08523,0,0,1,.375,1.23047,1.93743,1.93743,0,0,1-.46289,1.33594,2.26227,2.26227,0,0,1-.69141.50391,2.92511,2.92511,0,0,1,.99023.56836,2.06224,2.06224,0,0,1,.58008,1.55273,2.3998,2.3998,0,0,1-.52148,1.50586,2.93676,2.93676,0,0,1-2.47852,1.00781h-3.63867Zm3.65625,7.61133a1.7735,1.7735,0,0,0,1.5293-.62109,1.56389,1.56389,0,0,0,.28711-.94922,1.263,1.263,0,0,0-.83789-1.27734,3.17181,3.17181,0,0,0-1.17773-.18164h-2.31445v3.0293Zm-.39258-3.97266a2.6154,2.6154,0,0,0,1.14844-.20508,1.18147,1.18147,0,0,0,.64453-1.16016,1.11831,1.11831,0,0,0-.68555-1.13672,3.08122,3.08122,0,0,0-1.14844-.16406h-2.08008v2.666Zm-6.74414-3.39258a3.05819,3.05819,0,0,1,1.57031,2.36133h-1.1543a2.09625,2.09625,0,0,0-.873-1.374,3.005,3.005,0,0,0-1.66992-.43066,2.617,2.617,0,0,0-2.0127.89648,3.8472,3.8472,0,0,0-.81738,2.67188,4.26935,4.26935,0,0,0,.67383,2.499,2.49108,2.49108,0,0,0,2.19727.96387,2.53813,2.53813,0,0,0,2.71289-2.86523h-2.69531v-.9668h3.7793v4.60547h-.75l-.28125-1.10742a4.42069,4.42069,0,0,1-1.04883.90234,3.93119,3.93119,0,0,1-1.95117.43359,3.80142,3.80142,0,0,1-2.63086-.99023,4.69932,4.69932,0,0,1-1.20117-3.41016,4.8904,4.8904,0,0,1,1.17188-3.43945,3.725,3.725,0,0,1,2.88281-1.21875A4.42165,4.42165,0,0,1,1825.35444,404.76772Zm-14.334-.24609h3.98438a3.97373,3.97373,0,0,1,1.623.28711,2.03279,2.03279,0,0,1,1.21289,2.0332,2.11729,2.11729,0,0,1-1.21289,2.05664,1.76069,1.76069,0,0,1,.75879.53906,1.936,1.936,0,0,1,.28418,1.084l.041,1.1543a3.54834,3.54834,0,0,0,.082.73242.72017.72017,0,0,0,.375.52734v.19336h-1.42969a1.0754,1.0754,0,0,1-.09375-.28711,5.511,5.511,0,0,1-.05859-.67969l-.07031-1.43555a1.20616,1.20616,0,0,0-.627-1.13086,2.59316,2.59316,0,0,0-1.04883-.1582h-2.6543v3.69141h-1.166Zm3.86133,3.94336a2.25965,2.25965,0,0,0,1.29785-.32812,1.33575,1.33575,0,0,0,.47754-1.18359,1.2699,1.2699,0,0,0-.668-1.25391,2.18288,2.18288,0,0,0-.95508-.17578h-2.84766V408.465Z" transform="translate(-588.3721 -302.53002)"/>
    <line class="cls-10" x1="1531.09366" y1="166.09903" x2="1550.99369" y2="166.09903"/>
    <polygon class="cls-11" points="1557.744 166.099 1548.744 170.599 1550.994 166.099 1548.744 161.599 1557.744 166.099"/>
    <polygon class="cls-10" points="1557.744 166.099 1548.744 170.599 1550.994 166.099 1548.744 161.599 1557.744 166.099"/>
    <line class="cls-15" x1="1440.59366" y1="235.59903" x2="1440.59366" y2="203.83904"/>
    <polygon class="cls-16" points="1440.594 197.839 1444.594 205.839 1440.594 203.839 1436.594 205.839 1440.594 197.839"/>
    <polygon class="cls-15" points="1440.594 197.839 1444.594 205.839 1440.594 203.839 1436.594 205.839 1440.594 197.839"/>
    <path class="cls-15" d="M2011.96577,538.12905v-10q0-10-10-10h-123q-10,0-10-5.88v-5.88" transform="translate(-588.3721 -302.53002)"/>
    <polygon class="cls-16" points="1280.594 197.839 1284.594 205.839 1280.594 203.839 1276.594 205.839 1280.594 197.839"/>
    <polygon class="cls-15" points="1280.594 197.839 1284.594 205.839 1280.594 203.839 1276.594 205.839 1280.594 197.839"/>
    <path class="cls-15" d="M2048.96577,538.12905v-10q0-10,10-10h120q10,0,10-5.88v-5.88" transform="translate(-588.3721 -302.53002)"/>
    <polygon class="cls-16" points="1600.594 197.839 1604.594 205.839 1600.594 203.839 1596.594 205.839 1600.594 197.839"/>
    <polygon class="cls-15" points="1600.594 197.839 1604.594 205.839 1600.594 203.839 1596.594 205.839 1600.594 197.839"/>
    <path class="cls-12" d="M2189.46577,438.62905v-10q0-10,10-10h59.9" transform="translate(-588.3721 -302.53002)"/>
    <polygon class="cls-13" points="1677.744 116.099 1668.744 120.599 1670.994 116.099 1668.744 111.599 1677.744 116.099"/>
    <polygon class="cls-12" points="1677.744 116.099 1668.744 120.599 1670.994 116.099 1668.744 111.599 1677.744 116.099"/>
    <rect class="cls-4" x="1401.09366" y="346.09903" width="80" height="60" rx="9" ry="9"/>
    <path d="M2047.97748,676.48061a3.1576,3.1576,0,0,1,.83789,2.37891,4.08148,4.08148,0,0,1-.73828,2.50781,2.67065,2.67065,0,0,1-2.291.99023,2.58641,2.58641,0,0,1-2.05664-.876,3.46,3.46,0,0,1-.76172-2.35254,3.74329,3.74329,0,0,1,.80273-2.51953,2.694,2.694,0,0,1,2.15625-.9375A2.8416,2.8416,0,0,1,2047.97748,676.48061Zm-.65332,4.1748a3.95541,3.95541,0,0,0,.38965-1.7666,3.14542,3.14542,0,0,0-.28125-1.42969,1.58214,1.58214,0,0,0-1.53516-.86719,1.51385,1.51385,0,0,0-1.40625.73828,3.42209,3.42209,0,0,0-.43945,1.78125,2.9767,2.9767,0,0,0,.43945,1.66992,1.54779,1.54779,0,0,0,1.39453.668A1.45453,1.45453,0,0,0,2047.32416,680.65542Zm-10.60059-4.80176h1.002v.89063a2.8103,2.8103,0,0,1,.94336-.791,2.51566,2.51566,0,0,1,1.10742-.24023,1.826,1.826,0,0,1,1.80469.93164,3.30818,3.30818,0,0,1,.25781,1.459v4.02539h-1.07227V678.174a2.14165,2.14165,0,0,0-.16992-.92578,1.03015,1.03015,0,0,0-1.01953-.58594,2.076,2.076,0,0,0-.61523.07617,1.58441,1.58441,0,0,0-.76172.51563,1.55236,1.55236,0,0,0-.34277.6416,4.31877,4.31877,0,0,0-.0791.94629v3.28711h-1.05469Zm-2.65625-2.332h1.07227v1.19531h-1.07227Zm0,2.36133h1.07227v6.24609h-1.07227Zm-5.61719-.0293v4.166a1.75657,1.75657,0,0,0,.15234.78516,1.063,1.063,0,0,0,1.04883.5625,1.48244,1.48244,0,0,0,1.5-.98437,3.90552,3.90552,0,0,0,.2168-1.44727v-3.082h1.05469v6.27539h-.99609l.01172-.92578a2.1275,2.1275,0,0,1-.50977.60352,2.24313,2.24313,0,0,1-1.46484.49219,1.88958,1.88958,0,0,1-1.82812-.89648,2.66992,2.66992,0,0,1-.26367-1.2832v-4.26562Zm-4.26367.19336a2.83525,2.83525,0,0,1,.63867.61523v-3.16992h1.01367v8.63672h-.94922v-.873a2.28188,2.28188,0,0,1-.873.83789,2.499,2.499,0,0,1-1.1543.25781,2.33749,2.33749,0,0,1-1.81641-.88184,3.44768,3.44768,0,0,1-.76758-2.34668,4.05089,4.05089,0,0,1,.7002-2.376,2.29238,2.29238,0,0,1,2.001-1.00488A2.23264,2.23264,0,0,1,2024.18647,676.047Zm-2.36719,4.70508a1.49879,1.49879,0,0,0,1.37109.67969,1.4441,1.4441,0,0,0,1.2041-.62988,2.97472,2.97472,0,0,0,.47168-1.80762,2.673,2.673,0,0,0-.48633-1.76074,1.517,1.517,0,0,0-1.20117-.57129,1.58566,1.58566,0,0,0-1.292.60938,2.791,2.791,0,0,0-.49512,1.793A3.11064,3.11064,0,0,0,2021.81928,680.7521Zm-5.05078-4.89844h1.002v1.084a2.395,2.395,0,0,1,.60352-.77051,1.56483,1.56483,0,0,1,1.10742-.4541q.0293,0,.09961.00586t.24023.02344v1.11328a1.57536,1.57536,0,0,0-.17285-.02344q-.0791-.00586-.17285-.00586a1.50507,1.50507,0,0,0-1.22461.5127,1.78959,1.78959,0,0,0-.42773,1.18066v3.60938h-1.05469Zm-5.38672-2.332h1.31836l3.123,8.60742h-1.27734l-.873-2.57812h-3.4043l-.93164,2.57813h-1.19531Zm1.916,5.08008-1.30664-3.80273-1.38867,3.80273Z" transform="translate(-588.3721 -302.53002)"/>
    <line class="cls-17" x1="1440.59366" y1="345.59903" x2="1440.59366" y2="303.83902"/>
    <polygon class="cls-18" points="1440.594 297.839 1444.594 305.839 1440.594 303.839 1436.594 305.839 1440.594 297.839"/>
    <polygon class="cls-17" points="1440.594 297.839 1444.594 305.839 1440.594 303.839 1436.594 305.839 1440.594 297.839"/>
    <rect class="cls-14" x="1444.59366" y="326.59903" width="33" height="14"/>
    <path d="M2065.456,630.52163V631.547h-2.90039v7.582H2061.372v-7.582h-2.90039v-1.02539Zm-14.7793,0h3.98438a3.97373,3.97373,0,0,1,1.623.28711,2.03279,2.03279,0,0,1,1.21289,2.0332,2.11729,2.11729,0,0,1-1.21289,2.05664,1.76069,1.76069,0,0,1,.75879.53906,1.936,1.936,0,0,1,.28418,1.084l.041,1.1543a3.54834,3.54834,0,0,0,.082.73242.72017.72017,0,0,0,.375.52734v.19336h-1.42969a1.0754,1.0754,0,0,1-.09375-.28711,5.511,5.511,0,0,1-.05859-.67969l-.07031-1.43555a1.20616,1.20616,0,0,0-.627-1.13086,2.59316,2.59316,0,0,0-1.04883-.1582h-2.6543v3.69141h-1.166Zm3.86133,3.94336a2.25965,2.25965,0,0,0,1.29785-.32812,1.33575,1.33575,0,0,0,.47754-1.18359,1.2699,1.2699,0,0,0-.668-1.25391,2.18288,2.18288,0,0,0-.95508-.17578h-2.84766V634.465Zm-9.5-3.94336h1.31836l3.123,8.60742h-1.27734l-.873-2.57812h-3.4043l-.93164,2.57813h-1.19531Zm1.916,5.08008-1.30664-3.80273-1.38867,3.80273Zm-11.80859-5.08008v5.32031a3.12971,3.12971,0,0,0,.35156,1.55859,1.8476,1.8476,0,0,0,1.75781.9375,2.065,2.065,0,0,0,2.01563-1.01367,3.227,3.227,0,0,0,.28711-1.48242v-5.32031h1.18359v4.834a5.59291,5.59291,0,0,1-.42773,2.44336,3.59367,3.59367,0,0,1-5.92383,0,5.59291,5.59291,0,0,1-.42773-2.44336v-4.834Z" transform="translate(-588.3721 -302.53002)"/>
    <rect class="cls-4" x="1281.09366" y="346.09903" width="80" height="60" rx="9" ry="9"/>
    <path d="M1917.94037,668.85366h1.002v1.084a2.395,2.395,0,0,1,.60352-.77051,1.56483,1.56483,0,0,1,1.10742-.4541q.0293,0,.09961.00586t.24023.02344v1.11328a1.57536,1.57536,0,0,0-.17285-.02344q-.0791-.00586-.17285-.00586a1.50507,1.50507,0,0,0-1.22461.5127,1.78959,1.78959,0,0,0-.42773,1.18066v3.60938h-1.05469Zm-2.40625,2.63672a2.73249,2.73249,0,0,0-.29883-1.0957,1.5316,1.5316,0,0,0-1.44727-.76172,1.60426,1.60426,0,0,0-1.21875.52441,1.981,1.981,0,0,0-.52148,1.333Zm-.38672-2.46387a2.38792,2.38792,0,0,1,.95508.81152,2.79976,2.79976,0,0,1,.42188,1.10742,7.24548,7.24548,0,0,1,.09375,1.38281h-4.59961a2.684,2.684,0,0,0,.45117,1.53223,1.51072,1.51072,0,0,0,1.30664.57715,1.68916,1.68916,0,0,0,1.31836-.54492,1.837,1.837,0,0,0,.39844-.73242h1.03711a2.18426,2.18426,0,0,1-.27246.77051,2.74042,2.74042,0,0,1-.51856.69434,2.45779,2.45779,0,0,1-1.18945.63281,3.61335,3.61335,0,0,1-.86133.09375,2.64277,2.64277,0,0,1-1.98633-.85254,3.31718,3.31718,0,0,1-.81445-2.3877,3.60678,3.60678,0,0,1,.82031-2.45508,2.70617,2.70617,0,0,1,2.14453-.94336A2.86248,2.86248,0,0,1,1915.14741,669.02651Zm-9.28125,4.13379a1.53376,1.53376,0,0,0,.26367.80859,1.657,1.657,0,0,0,1.38281.50977,2.03934,2.03934,0,0,0,1.03125-.25488.8464.8464,0,0,0,.44531-.78809.67393.67393,0,0,0-.35742-.61523,4.2495,4.2495,0,0,0-.90234-.29883l-.83789-.21094a4.08742,4.08742,0,0,1-1.18359-.44531,1.331,1.331,0,0,1-.67969-1.18359,1.80845,1.80845,0,0,1,.6416-1.44141,2.55952,2.55952,0,0,1,1.72559-.55078,2.39548,2.39548,0,0,1,2.04492.832,1.80562,1.80562,0,0,1,.38086,1.13672h-.99609a1.22019,1.22019,0,0,0-.252-.65039,1.60688,1.60688,0,0,0-1.25977-.416,1.50582,1.50582,0,0,0-.90527.22852.71617.71617,0,0,0-.30762.60352.74288.74288,0,0,0,.4043.65625,2.42949,2.42949,0,0,0,.69141.25781l.69727.16992a5.39113,5.39113,0,0,1,1.52344.5332,1.41183,1.41183,0,0,1,.61523,1.27148,1.93765,1.93765,0,0,1-.63574,1.44727,2.70627,2.70627,0,0,1-1.93652.60938,2.59822,2.59822,0,0,1-1.9834-.63574,2.40425,2.40425,0,0,1-.624-1.57324Zm-7.877-6.63867v5.32031a3.12971,3.12971,0,0,0,.35156,1.55859,1.8476,1.8476,0,0,0,1.75781.9375,2.065,2.065,0,0,0,2.01563-1.01367,3.227,3.227,0,0,0,.28711-1.48242v-5.32031h1.18359v4.834a5.59291,5.59291,0,0,1-.42773,2.44336,3.59367,3.59367,0,0,1-5.92383,0,5.59291,5.59291,0,0,1-.42773-2.44336v-4.834Z" transform="translate(-588.3721 -302.53002)"/>
    <path d="M1930.19037,685.49038a2.73249,2.73249,0,0,0-.29883-1.0957,1.5316,1.5316,0,0,0-1.44727-.76172,1.60426,1.60426,0,0,0-1.21875.52441,1.981,1.981,0,0,0-.52148,1.333Zm-.38672-2.46387a2.38792,2.38792,0,0,1,.95508.81152,2.79976,2.79976,0,0,1,.42188,1.10742,7.24548,7.24548,0,0,1,.09375,1.38281h-4.59961a2.684,2.684,0,0,0,.45117,1.53223,1.51072,1.51072,0,0,0,1.30664.57715,1.68916,1.68916,0,0,0,1.31836-.54492,1.837,1.837,0,0,0,.39844-.73242h1.03711a2.18426,2.18426,0,0,1-.27246.77051,2.74042,2.74042,0,0,1-.51856.69434,2.45779,2.45779,0,0,1-1.18945.63281,3.61335,3.61335,0,0,1-.86133.09375,2.64277,2.64277,0,0,1-1.98633-.85254,3.31718,3.31718,0,0,1-.81445-2.3877,3.60678,3.60678,0,0,1,.82031-2.45508,2.70617,2.70617,0,0,1,2.14453-.94336A2.86248,2.86248,0,0,1,1929.80366,683.02651Zm-5.76269.16113a2.47018,2.47018,0,0,1,.7998,1.77539h-1.02539a1.893,1.893,0,0,0-.42773-.96387,1.35114,1.35114,0,0,0-1.07227-.38379,1.48159,1.48159,0,0,0-1.44141.98438,3.91031,3.91031,0,0,0-.28125,1.57617,2.966,2.966,0,0,0,.39844,1.58789,1.54464,1.54464,0,0,0,2.29395.24316,2.207,2.207,0,0,0,.53027-1.09863h1.02539a2.47976,2.47976,0,0,1-2.67773,2.40234,2.40127,2.40127,0,0,1-1.96289-.89941,3.44251,3.44251,0,0,1-.73242-2.24707,3.78564,3.78564,0,0,1,.80273-2.57227,2.59389,2.59389,0,0,1,2.04492-.91992A2.73605,2.73605,0,0,1,1924.041,683.18765Zm-7.4541,2.13867a.573.573,0,0,0,.48633-.30469.92708.92708,0,0,0,.07031-.4043.85656.85656,0,0,0-.38379-.78223,2.05909,2.05909,0,0,0-1.09863-.24316,1.396,1.396,0,0,0-1.17187.44531,1.46507,1.46507,0,0,0-.252.73242h-.98437a1.81185,1.81185,0,0,1,.75293-1.61426,3.09137,3.09137,0,0,1,1.67871-.4541,3.41568,3.41568,0,0,1,1.79883.42188,1.43124,1.43124,0,0,1,.68555,1.3125v3.61523a.46289.46289,0,0,0,.06738.26367.325.325,0,0,0,.28418.09961q.07031,0,.1582-.00879t.1875-.02637v.7793a2.93737,2.93737,0,0,1-.375.08789,2.74041,2.74041,0,0,1-.35156.01758.86745.86745,0,0,1-.791-.38672,1.49245,1.49245,0,0,1-.18164-.58008,2.68334,2.68334,0,0,1-.92578.73242,2.86365,2.86365,0,0,1-1.33008.31055,1.97788,1.97788,0,0,1-1.42676-.53027,1.76138,1.76138,0,0,1-.55371-1.32715,1.70939,1.70939,0,0,1,.54492-1.35352,2.59268,2.59268,0,0,1,1.42969-.5918Zm-2.2207,2.85352a1.23828,1.23828,0,0,0,.791.26367,2.405,2.405,0,0,0,1.07813-.25781,1.451,1.451,0,0,0,.87891-1.40039v-.84961a1.80437,1.80437,0,0,1-.498.20508,4.244,4.244,0,0,1-.59766.11719l-.63867.082a2.44266,2.44266,0,0,0-.86133.24023.93585.93585,0,0,0-.48633.87891A.86855.86855,0,0,0,1914.36616,688.17983Zm-3.97852-7.24219a1.61507,1.61507,0,0,1,1.42383-.53906q.09961,0,.20508.00586t.24023.01758v.96094q-.16406-.01172-.2373-.01465t-.1377-.00293q-.48047,0-.57422.249a4.92338,4.92338,0,0,0-.09375,1.26855h1.043v.832h-1.05469v5.41406h-1.043V683.715h-.873v-.832h.873v-.98437A1.88054,1.88054,0,0,1,1910.38764,680.93765Zm-4.44727,1.916h1.002v1.084a2.395,2.395,0,0,1,.60352-.77051,1.56483,1.56483,0,0,1,1.10742-.4541q.0293,0,.09961.00586t.24023.02344v1.11328a1.57536,1.57536,0,0,0-.17285-.02344q-.0791-.00586-.17285-.00586a1.50507,1.50507,0,0,0-1.22461.5127,1.78959,1.78959,0,0,0-.42773,1.18066v3.60938h-1.05469Zm-2.40625,2.63672a2.73249,2.73249,0,0,0-.29883-1.0957,1.5316,1.5316,0,0,0-1.44727-.76172,1.60426,1.60426,0,0,0-1.21875.52441,1.981,1.981,0,0,0-.52148,1.333Zm-.38672-2.46387a2.38792,2.38792,0,0,1,.95508.81152,2.79976,2.79976,0,0,1,.42188,1.10742,7.24548,7.24548,0,0,1,.09375,1.38281h-4.59961a2.684,2.684,0,0,0,.45117,1.53223,1.51072,1.51072,0,0,0,1.30664.57715,1.68916,1.68916,0,0,0,1.31836-.54492,1.837,1.837,0,0,0,.39844-.73242h1.03711a2.18426,2.18426,0,0,1-.27246.77051,2.74042,2.74042,0,0,1-.51856.69434,2.45779,2.45779,0,0,1-1.18945.63281,3.61335,3.61335,0,0,1-.86133.09375,2.64277,2.64277,0,0,1-1.98633-.85254,3.31718,3.31718,0,0,1-.81445-2.3877,3.60678,3.60678,0,0,1,.82031-2.45508,2.70617,2.70617,0,0,1,2.14453-.94336A2.86248,2.86248,0,0,1,1903.14741,683.02651Zm-7.02539-1.9248h1.06641v1.752h1.002v.86133h-1.002v4.0957a.44318.44318,0,0,0,.22266.43945.9464.9464,0,0,0,.41016.06445q.07617,0,.16406-.00293t.20508-.01465v.832a2.35443,2.35443,0,0,1-.37793.07617,3.59308,3.59308,0,0,1-.4248.02344,1.14491,1.14491,0,0,1-1.002-.37793,1.67951,1.67951,0,0,1-.26367-.98145V683.715h-.84961v-.86133h.84961Zm-6.88281,1.752h1.002v.89063a2.8103,2.8103,0,0,1,.94336-.791,2.51566,2.51566,0,0,1,1.10742-.24023,1.826,1.826,0,0,1,1.80469.93164,3.30818,3.30818,0,0,1,.25781,1.459v4.02539h-1.07227V685.174a2.14165,2.14165,0,0,0-.16992-.92578,1.03015,1.03015,0,0,0-1.01953-.58594,2.076,2.076,0,0,0-.61523.07617,1.58441,1.58441,0,0,0-.76172.51563,1.55236,1.55236,0,0,0-.34277.6416,4.31877,4.31877,0,0,0-.0791.94629v3.28711h-1.05469Zm-2.92383-2.332h1.17773v8.60742h-1.17773Z" transform="translate(-588.3721 -302.53002)"/>
    <line class="cls-19" x1="1361.09366" y1="376.09903" x2="1387.26368" y2="376.09903"/>
    <polygon class="cls-18" points="1393.264 376.099 1385.264 380.099 1387.264 376.099 1385.264 372.099 1393.264 376.099"/>
    <polygon class="cls-19" points="1393.264 376.099 1385.264 380.099 1387.264 376.099 1385.264 372.099 1393.264 376.099"/>
  </g>
  <rect class="cls-1" x="999.59366" y="32.59903" width="883" height="376"/>
</svg>
